<?xml  version="1.0" encoding="UTF-8"?>
<!DOCTYPE svg PUBLIC "-//W3C//DTD SVG 1.0//EN" "http://www.w3.org/TR/2001/REC-SVG-20010904/DTD/svg10.dtd" >
<svg xmlns="http://www.w3.org/2000/svg" >
<metadata>
<version>1.0</version>
<id><![CDATA[Clarendon W01 Bold]]></id>
<vendor>Monotype Imaging Inc.</vendor>
<credits>
<name>Fonts.com WebFonts</name>
<URL>http://webfonts.fonts.com</URL>
<role>Home of the Web fonts</role>
</credits>
<license>
<URL>http://webfonts.fonts.com/Legal</URL>
</license>
<copyright><![CDATA[Copyright 2006 Linotype GmbH, www.linotype.com. All rights reserved. This font software may not be reproduced, modified, disclosed or transferred without the express written approval of Linotype GmbH. Clarendon is a trademark of Linotype GmbH and may be registered in certain jurisdictions. This typeface is original artwork of Hermann Eidenbenz. The design may be protected in certain jurisdictions.]]></copyright>
<trademark><![CDATA[Clarendon is a trademark of Linotype GmbH and may be registered in certain jurisdictions.]]></trademark>
<licensee>
<name></name>
</licensee>
</metadata>
<defs >
<font horiz-adv-x="601" id="e6e6c27f-7ec8-47cc-844c-c72378fc634c">
<font-face font-family="" panose-1="2 4 8 4 5 9 5 5 2 4" ascent="913" descent="-260" units-per-em="1000" alphabetic="0">
</font-face>
<missing-glyph horiz-adv-x="250" />

<glyph unicode="&#xA;" />
<glyph unicode="&#xD;" horiz-adv-x="250" />
<glyph unicode=" " horiz-adv-x="250" />
<glyph unicode="!" horiz-adv-x="285" d="M145 163Q180 163 204 138T229 78Q229 43 204 18T144 -7Q109 -7 84 18T59 79Q59 114 84 138T145 163ZM109 205L59 556Q57 567 57 577T56 596Q56 638 80 663T145 688Q183 688 205 664T227 595Q227 584 227 575T225 556L180 205H109Z"  />
<glyph unicode="&quot;" horiz-adv-x="424" d="M70 399L46 667H190L166 399H70ZM258 399L234 667H378L353 399H258Z"  />
<glyph unicode="#" horiz-adv-x="610" d="M355 265L372 390H257L240 265H355ZM118 0L144 181H61V265H158L176 390H89V474H189L215 650H296L270 474H386L412 650H493L467 474H549V390H454L436 265H521V181H422L396 0H315L341 181H225L200 0H118Z"  />
<glyph unicode="$" horiz-adv-x="571" d="M316 661Q347 660 367 657T409 645Q454 628 481 591T509 510Q509 474 487 450T430 426Q398 426 378 445T358 496Q358 516 367 530T398 559Q374 574 349 580T287 587Q228 587 194 563T160 495Q160 476 167 462T191 437T239 416T315 396Q373 383 413 366T478 326T514 272T526 199Q526 150 504 107T441 36Q414 18 386 8T316 -7V-105H244V-7Q201 -7 164 4T100 36T58 84T43 145Q43 184 66 210T125 236Q157 236 177 216T197 165Q197 142 187 128T150 99Q170 82 194 76T259 69Q325 69 362 93T399 160Q399 180 393 194T371 219T325 239T248 260Q192 273 153 290T90 329T56 382T45 452Q45 540 96 593T244 661V741H316V661Z"  />
<glyph unicode="%" horiz-adv-x="729" d="M155 672Q187 672 213 659T254 623Q276 585 276 490Q276 447 271 421T254 377Q240 354 213 341T154 328Q116 328 89 344T48 391Q33 424 33 503Q33 548 37 575T53 621Q68 645 94 658T155 672ZM153 627Q142 627 135 622T125 604T120 568T118 507Q118 469 119 444T125 405T137 384T155 378Q163 378 171 382T182 395Q185 401 187 407T189 423T190 448T191 487Q191 531 190 558T184 601T173 621T153 627ZM584 667L215 0H148L517 667H584ZM575 339Q607 339 633 326T674 290Q696 252 696 157Q696 114 691 88T674 44Q660 21 633 8T574 -5Q536 -5 509 11T468 58Q453 91 453 170Q453 215 457 242T473 288Q488 312 514 325T575 339ZM573 294Q562 294 555 289T545 271T540 235T538 175Q538 136 539 111T545 72T557 51T575 45Q583 45 591 49T602 62Q605 68 607 74T609 90T610 115T611 154Q611 198 610 225T604 268T593 288T573 294Z"  />
<glyph unicode="&amp;" horiz-adv-x="824" d="M772 410V328H752Q729 328 715 326T690 314T666 287T637 238Q616 201 599 177T559 130Q595 93 637 93Q698 93 698 208V233H784Q784 206 783 187T781 154T777 129T771 106Q735 -6 616 -6Q528 -6 462 48Q385 -10 272 -10Q165 -10 100 46Q68 73 51 110T33 187Q33 230 53 268T112 332Q131 346 149 355T198 378Q178 416 169 445T159 504Q159 537 172 565T208 615T262 648T329 660Q363 660 391 650T441 622T473 578T485 523Q485 472 455 434T359 364Q398 304 435 257T501 186Q525 217 540 248T555 300Q555 316 545 322T509 328H484V410H772ZM317 424Q358 447 375 470T393 525Q393 554 377 571T335 588Q309 588 293 571T277 527Q277 504 285 482T317 424ZM235 311Q173 279 173 218Q173 189 184 164T215 119T260 88T315 76Q364 76 399 104Q363 139 320 193T235 311Z"  />
<glyph unicode="&apos;" horiz-adv-x="285" d="M95 399L71 667H215L191 399H95Z"  />
<glyph unicode="(" horiz-adv-x="365" d="M345 618Q310 601 288 583T252 540Q199 452 199 232Q199 64 233 -24T345 -137V-215Q48 -137 48 232Q48 373 82 466T192 620Q226 647 261 665T345 696V618Z"  />
<glyph unicode=")" horiz-adv-x="365" d="M20 696Q77 680 121 656T202 594Q262 534 289 446T317 232Q317 -137 20 -215V-137Q96 -112 131 -24T166 232Q166 452 113 540Q99 564 77 582T20 618V696Z"  />
<glyph unicode="*" horiz-adv-x="461" d="M98 600Q129 600 176 547Q190 533 198 533Q209 533 209 545Q209 552 201 565Q188 588 181 609T173 641Q173 663 188 675T231 688Q257 688 272 676T288 641Q288 619 260 565Q252 552 252 544Q252 533 263 533Q271 533 285 547Q333 600 363 600Q385 600 400 580T415 531Q415 511 401 499T365 486Q351 486 333 488T302 492Q297 493 294 493T288 494Q272 494 272 483Q272 472 293 462Q369 428 369 391Q369 380 363 370T348 351T327 337T304 331Q257 331 245 428Q242 455 230 455Q218 455 215 428Q203 331 156 331Q145 331 134 336T113 350T97 369T91 391Q91 428 168 463Q189 471 189 483Q189 488 185 491T174 494Q172 494 168 494T159 492Q145 490 128 488T97 486Q74 486 60 499T46 533Q46 561 61 580T98 600Z"  />
<glyph unicode="+" horiz-adv-x="720" d="M315 225H79V309H315V519H404V309H641V225H404V13H315V225Z"  />
<glyph unicode="&#x2c;" horiz-adv-x="285" d="M62 -97Q82 -94 99 -84T130 -61T150 -31T158 3Q146 -2 138 -4T119 -6Q86 -6 66 14T45 66Q45 102 69 126T131 151Q176 151 205 117T234 29Q234 -7 221 -39T184 -96T129 -138T62 -157V-97Z"  />
<glyph unicode="-" horiz-adv-x="291" d="M291 306V181H0V306H291Z"  />
<glyph unicode="." horiz-adv-x="271" d="M137 163Q172 163 196 138T221 78Q221 43 196 18T136 -7Q101 -7 76 18T51 79Q51 114 76 138T137 163Z"  />
<glyph unicode="/" horiz-adv-x="395" d="M146 -200H20L249 667H375L146 -200Z"  />
<glyph unicode="0" horiz-adv-x="571" d="M288 666Q351 666 400 644T476 579Q502 541 513 483T525 336Q525 246 513 185T475 82Q447 37 398 14T285 -10Q237 -10 194 5T127 45Q85 89 66 159T46 342Q46 510 104 588T288 666ZM286 583Q262 583 246 571T221 529T208 449T204 323Q204 272 205 237T210 176T218 133T232 102Q239 89 255 81T288 73Q311 73 326 85T351 128T363 211T367 344Q367 412 363 458T350 531T325 571T286 583Z"  />
<glyph unicode="1" horiz-adv-x="571" d="M378 129Q378 115 379 109T386 97Q400 83 432 83H505V0H105V83H173Q208 83 221 99Q225 104 226 109T227 129V451H105V535L118 536Q153 539 178 547T222 569T254 604T277 656H378V129Z"  />
<glyph unicode="2" horiz-adv-x="571" d="M527 229V164Q527 79 493 35T393 -10Q367 -10 338 -3T265 22Q238 33 221 39T193 50T175 55T161 56Q141 56 134 44T124 0H38Q37 9 37 16T37 28Q37 73 46 113T72 182Q89 212 123 242T213 304Q238 319 255 330T284 350T303 366T318 383Q344 418 344 462Q344 513 312 542T225 572Q184 572 159 557T125 514Q133 516 139 517T150 518Q176 518 195 497T215 446Q215 411 191 389T128 366Q83 366 56 395T29 474Q29 520 53 561T119 628Q148 646 187 656T272 666Q326 666 370 652T444 612T492 549T509 467Q509 423 492 385T443 318Q410 290 340 261Q237 220 192 190T143 130Q166 144 185 150T223 157Q231 157 236 157T251 154T276 148T321 135Q350 127 367 124T396 120Q448 120 448 189V229H527Z"  />
<glyph unicode="3" horiz-adv-x="571" d="M210 382Q253 382 274 385T310 397Q331 408 342 429T353 477Q353 525 323 554T241 583Q219 583 204 578T171 559Q199 544 209 530T220 491Q220 456 198 434T138 411Q97 411 72 437T47 505Q47 541 64 570T111 621T183 654T276 666Q328 666 371 654T446 619T494 566T511 497Q511 445 482 408T395 350Q458 333 491 293T524 192Q524 147 505 110T450 46T365 5T255 -10Q206 -10 166 2T96 35T50 85T34 151Q34 173 41 192T62 226T92 249T130 258Q165 258 189 234T213 172Q213 148 202 133T161 100Q181 84 197 79T238 73Q292 73 323 106T355 194Q355 224 345 247T317 282Q303 291 284 294T227 299H210V382Z"  />
<glyph unicode="4" horiz-adv-x="571" d="M453 264H536V175H453V129Q453 114 454 108T461 96Q476 83 507 83H536V0H207V83H252Q287 83 300 99Q304 104 305 109T306 129V175H48V272L330 656H453V264ZM306 484L148 264H306V484Z"  />
<glyph unicode="5" horiz-adv-x="571" d="M108 663L131 669Q188 651 243 643T353 634Q400 634 435 642T501 669L528 647Q500 609 476 585T425 547T368 527T297 521Q285 521 276 521T255 523T227 526T186 532L174 425Q208 439 234 444T293 449Q347 449 391 434T467 390T515 321T532 231Q532 178 513 134T460 57T378 8T273 -10Q225 -10 185 2T115 35T69 87T53 153Q53 199 78 227T143 256Q181 256 204 234T227 175Q227 149 215 132T174 100Q195 87 210 83T249 78Q306 78 335 114T364 222Q364 287 335 322T253 358Q199 358 174 322L80 327L108 663Z"  />
<glyph unicode="6" horiz-adv-x="571" d="M195 386Q212 397 226 404T253 415T281 421T313 423Q361 423 400 409T466 368T508 303T523 218Q523 167 506 125T458 53T384 7T288 -10Q219 -10 168 14T87 86Q63 124 52 176T40 301Q40 496 115 583Q150 623 203 644T322 666Q363 666 397 657T455 630T493 589T507 536Q507 496 484 472T422 448Q387 448 366 467T344 517Q344 535 351 547T377 578Q366 582 359 583T340 584Q265 584 231 538T195 386ZM284 336Q244 336 221 302T198 209Q198 145 220 109T283 73Q321 73 343 108T365 205Q365 266 344 301T284 336Z"  />
<glyph unicode="7" horiz-adv-x="571" d="M66 656H149V623Q199 666 246 666Q256 666 264 665T283 661T310 651T351 634Q386 620 405 614T435 607Q449 607 453 616T458 656H543Q542 611 538 578T520 512T483 438T419 339Q400 311 388 289T366 245T352 201T342 151Q338 124 336 100T334 49Q334 37 334 27T337 0H184Q183 17 183 26T183 47Q183 113 195 165T236 267Q245 283 252 295T273 323T309 365T370 433Q398 464 411 481T436 520Q413 508 395 503T355 498Q344 498 335 498T314 502T282 510T230 525Q218 529 199 529Q149 529 149 464V397H66V656Z"  />
<glyph unicode="8" horiz-adv-x="571" d="M140 321Q114 338 97 354T69 387T54 424T49 468Q49 513 66 549T114 612T190 652T288 666Q337 666 377 655T445 622T488 570T503 502Q503 457 482 426T409 364Q528 313 528 195Q528 148 510 111T459 46T378 5T273 -10Q165 -10 104 37T42 169Q42 195 47 216T63 255T93 288T140 321ZM331 400Q333 400 345 410Q355 420 361 425T370 434T375 439T379 445Q396 470 396 497Q396 535 365 559T282 583Q232 583 201 563T169 510Q169 495 175 484T198 461T247 435T331 400ZM217 282Q215 282 203 272Q191 261 185 256T175 246T170 239T165 230Q151 204 151 176Q151 128 186 99T279 70Q333 70 366 92T400 152Q400 178 385 196T332 234Q279 263 217 282Z"  />
<glyph unicode="9" horiz-adv-x="571" d="M373 268Q341 248 311 239T247 229Q203 229 166 244T103 286T62 352T47 437Q47 561 135 622Q199 666 282 666Q402 666 466 585T530 352Q530 257 505 179T433 56Q365 -10 254 -10Q213 -10 179 -1T119 25T81 65T67 117Q67 155 90 179T149 203Q182 203 204 183T226 131Q226 114 219 101T195 73Q209 69 217 68T236 66Q367 66 373 268ZM284 583Q246 583 223 548T200 455Q200 389 223 351T288 312Q328 312 350 346T372 442Q372 508 349 545T284 583Z"  />
<glyph unicode=":" horiz-adv-x="271" d="M137 163Q172 163 196 138T221 78Q221 43 196 18T136 -7Q101 -7 76 18T51 79Q51 114 76 138T137 163ZM137 484Q172 484 196 459T221 399Q221 364 196 339T136 314Q101 314 76 339T51 400Q51 435 76 459T137 484Z"  />
<glyph unicode=";" horiz-adv-x="285" d="M62 -97Q82 -94 99 -84T130 -61T150 -31T158 3Q146 -2 138 -4T119 -6Q86 -6 66 14T45 66Q45 102 69 126T131 151Q176 151 205 117T234 29Q234 -7 221 -39T184 -96T129 -138T62 -157V-97ZM131 484Q166 484 190 459T215 399Q215 364 190 339T130 314Q95 314 70 339T45 400Q45 435 70 459T131 484Z"  />
<glyph unicode="&lt;" horiz-adv-x="720" d="M633 4L87 226V306L633 527V434L208 267V265L633 97V4Z"  />
<glyph unicode="=" horiz-adv-x="720" d="M78 414H642V331H78V414ZM78 206H642V123H78V206Z"  />
<glyph unicode="&gt;" horiz-adv-x="720" d="M87 97L512 265V267L87 434V527L633 306V226L87 4V97Z"  />
<glyph unicode="?" horiz-adv-x="547" d="M261 163Q296 163 320 138T345 78Q345 43 320 18T260 -7Q225 -7 200 18T175 79Q175 114 200 138T261 163ZM215 206Q214 213 214 218T214 227Q214 268 236 306Q239 311 243 317T254 331T271 353T297 384Q325 416 336 442T348 494Q348 539 314 567T225 595Q182 595 157 580T126 535L142 536Q173 536 193 516T213 465Q213 430 189 407T128 384Q83 384 55 415T27 499Q27 541 44 576T93 635T169 674T266 688Q320 688 364 675T440 638T489 580T507 505Q507 463 491 430T440 364Q436 361 433 358T421 348T395 328T345 291Q322 273 314 255T305 206H215Z"  />
<glyph unicode="@" horiz-adv-x="733" d="M563 349L526 158Q521 136 520 128T519 113Q519 81 542 81Q557 81 571 95T598 131T617 182T624 240Q624 288 607 328T558 396T484 441T389 457Q332 457 282 436T196 378T138 291T117 182Q117 128 136 79T192 -8Q228 -44 275 -61T390 -78Q436 -78 479 -71T571 -48L592 -129Q548 -143 496 -151T387 -159Q231 -159 137 -69Q86 -21 58 45T30 183Q30 258 57 322T133 435T245 510T385 538Q454 538 512 516T612 454T679 360T703 241Q703 195 690 153T653 79T601 27T538 8Q509 8 488 23T459 63Q439 34 406 17T334 0Q304 0 278 12T232 45T202 95T191 158Q191 198 205 235T244 299T300 343T368 360Q399 360 425 347T466 311L473 349H563ZM380 266Q362 266 347 258T319 235T300 202T293 162Q293 130 311 111T358 91Q375 91 390 99T417 122T436 155T443 195Q443 227 426 246T380 266Z"  />
<glyph unicode="A" horiz-adv-x="841" d="M262 210L240 153Q237 143 233 127T229 106Q229 93 240 89T284 84H314V0H17V84H34Q69 84 87 96T120 141Q125 152 130 162T140 183Q147 197 152 208T160 230L337 667H489L697 188Q711 155 722 135T746 103T772 88T808 84H824V0H454V84H489Q547 84 547 110Q547 123 537 147L511 210H262ZM379 516L294 296H472L379 516Z"  />
<glyph unicode="B" horiz-adv-x="777" d="M488 667Q600 667 659 624T718 500Q718 445 687 411T583 350Q736 317 736 184Q736 142 719 108T670 50T593 13T491 0H36V82H88Q105 82 117 86T136 99Q140 104 141 109T142 129V538Q142 553 141 559T134 571Q127 577 115 581T88 585H36V667H488ZM417 385Q485 385 515 408T545 484Q545 538 517 559T419 581H307V385H417ZM428 82Q494 82 525 108T556 190Q556 299 436 299H307V82H428Z"  />
<glyph unicode="C" horiz-adv-x="755" d="M694 400H597Q591 489 544 538T416 588Q343 588 294 542Q220 474 220 333Q220 212 271 146T413 79Q492 79 540 126T606 264H708Q703 225 696 198T675 145Q635 65 562 22T393 -21Q278 -21 189 37Q116 85 78 158T40 327Q40 407 66 473T138 587T249 661T391 688Q421 688 447 685T497 673T544 651T592 618L614 673H694V400Z"  />
<glyph unicode="D" horiz-adv-x="823" d="M143 538Q143 553 142 559T135 571Q128 577 116 581T89 585H37V667H478Q550 667 606 646T702 584T762 485T783 352Q783 272 760 207T694 96T591 25T456 0H37V82H89Q106 82 118 86T137 99Q141 104 142 109T143 129V538ZM393 86Q453 86 487 98T546 140Q603 207 603 344Q603 409 591 452T550 527Q524 557 491 569T400 581H308V86H393Z"  />
<glyph unicode="E" horiz-adv-x="781" d="M720 406H632Q628 462 621 496T597 549T554 574T484 581H308V387H376Q420 387 436 404T453 466V501H542V183H453V223Q453 269 438 284T376 300H308V86H497Q569 86 600 133T632 286H725L720 0H37V82H89Q106 82 118 86T137 99Q141 104 142 109T143 129V538Q143 553 142 559T135 571Q128 577 116 581T89 585H37V667H720V406Z"  />
<glyph unicode="F" horiz-adv-x="725" d="M702 405H608L607 420Q606 446 605 462T602 490T598 508T591 524Q583 541 574 552T552 569T521 578T477 581H308V389H373Q397 389 407 391T425 400Q435 409 439 423T443 463V497H532V182H443V221Q443 246 440 261T429 286T407 298T371 302H308V129Q308 114 309 108T316 97Q330 83 362 83H433V0H37V82H89Q106 82 118 86T137 99Q141 104 142 109T143 129V538Q143 553 142 559T135 571Q128 577 116 581T89 585H37V667H702V405Z"  />
<glyph unicode="G" horiz-adv-x="831" d="M695 404H605Q601 446 586 480T545 538T487 575T415 588Q380 588 348 577T293 543Q220 476 220 326Q220 208 270 144T413 79Q442 79 467 85T510 103T539 130T550 164V217Q550 232 549 238T542 250Q528 264 496 264H441V347H808V264H765Q730 264 717 248Q713 243 712 237T711 217V0H616L595 59Q570 37 546 22T497 -2T444 -16T384 -21Q259 -21 168 47Q40 142 40 327Q40 520 177 621Q268 688 388 688Q448 688 496 672T595 617L616 673H695V404Z"  />
<glyph unicode="H" horiz-adv-x="881" d="M307 301V129Q307 114 308 108T315 96Q322 90 334 86T361 82H404V0H36V82H88Q105 82 117 86T136 99Q140 104 141 109T142 129V538Q142 553 141 559T134 571Q127 577 115 581T88 585H36V667H404V585H361Q327 585 313 568Q309 563 308 558T307 538V392H573V538Q573 553 572 559T565 571Q558 577 546 581T519 585H476V667H844V585H792Q758 585 744 568Q740 563 739 558T738 538V129Q738 114 739 108T746 96Q753 90 765 86T792 82H844V0H476V82H519Q536 82 548 86T567 99Q571 104 572 109T573 129V301H307Z"  />
<glyph unicode="I" horiz-adv-x="441" d="M308 129Q308 114 309 108T316 96Q323 90 335 86T362 82H405V0H37V82H89Q106 82 118 86T137 99Q141 104 142 109T143 129V538Q143 553 142 559T135 571Q128 577 116 581T89 585H37V667H405V585H362Q328 585 314 568Q310 563 309 558T308 538V129Z"  />
<glyph unicode="J" horiz-adv-x="524" d="M403 184Q403 136 393 104T362 47Q333 15 288 -3T188 -21Q147 -21 113 -10T53 20T14 65T0 124Q0 169 27 199T96 229Q131 229 154 207T178 151Q178 123 165 107T117 76Q127 66 137 63T168 59Q210 59 227 87Q231 93 233 99T236 116T237 143T238 184V538Q238 553 237 559T230 570Q216 584 184 584H117V667H494V584H458Q441 584 428 580T409 568Q405 563 404 558T403 538V184Z"  />
<glyph unicode="K" horiz-adv-x="835" d="M532 536Q552 553 552 566Q552 576 543 578T497 581H461V667H816V581H791Q772 581 756 578T723 567T687 546T643 511L532 416L706 153Q709 149 714 142T726 126T738 112T747 103Q766 86 805 86H826V0H461V86H499Q536 86 536 105Q536 110 535 113T525 130Q523 133 520 139T512 153L402 315L308 237V129Q308 114 309 108T316 96Q323 90 335 86T362 82H405V0H37V82H89Q106 82 118 86T137 99Q141 104 142 109T143 129V538Q143 553 142 559T135 571Q128 577 116 581T89 585H37V667H405V585H362Q328 585 314 568Q310 563 309 558T308 538V354L532 536Z"  />
<glyph unicode="L" horiz-adv-x="709" d="M446 86Q508 86 540 107T587 178Q592 197 594 223T598 293H693V0H37V82H89Q106 82 118 86T137 99Q141 104 142 109T143 129V538Q143 553 142 559T135 571Q128 577 116 581T89 585H37V667H422V584H362Q327 584 314 568Q310 563 309 558T308 538V86H446Z"  />
<glyph unicode="M" horiz-adv-x="1043" d="M525 258L693 667H1007V585H955Q921 585 907 568Q903 563 902 558T901 538V129Q901 114 902 108T909 96Q916 90 928 86T955 82H1007V0H630V82H682Q699 82 711 86T730 99Q734 104 735 109T736 129V507L525 0H449L242 514V129Q242 114 243 108T250 96Q257 90 269 86T296 82H343V0H31V82H83Q100 82 112 86T131 99Q135 104 136 109T137 129V538Q137 553 136 559T129 571Q122 577 110 581T83 585H31V667H359L525 258Z"  />
<glyph unicode="N" horiz-adv-x="867" d="M639 209V538Q639 553 638 559T631 571Q624 577 612 581T585 585H538V667H837V584H798Q763 584 750 568Q746 563 745 558T744 538V0H583L248 468V129Q248 114 249 108T256 96Q263 90 275 86T302 82H354V0H37V82H89Q106 82 118 86T137 99Q141 104 142 109T143 129V538Q143 553 142 559T135 571Q128 577 116 581T89 585H37V667H312L639 209Z"  />
<glyph unicode="O" horiz-adv-x="825" d="M413 688Q498 688 567 663T684 592T759 481T785 334Q785 253 759 188T685 76T568 4T414 -21Q327 -21 258 4T141 75T66 188T40 339Q40 417 69 487T153 603Q252 688 413 688ZM411 601Q367 601 332 583T271 530T233 447T220 337Q220 208 270 137T411 66Q501 66 551 137T602 334Q602 459 552 530T411 601Z"  />
<glyph unicode="P" horiz-adv-x="718" d="M308 129Q308 115 309 109T316 97Q330 83 362 83H425V0H37V82H89Q106 82 118 86T137 99Q141 104 142 109T143 129V538Q143 553 142 559T135 571Q128 577 116 581T89 585H37V667H477Q591 667 649 620T708 479Q708 292 457 292H308V129ZM391 378Q466 378 500 402T535 480Q535 509 523 531T490 565Q473 573 448 577T381 581H308V378H391Z"  />
<glyph unicode="Q" horiz-adv-x="844" d="M844 93Q836 -11 797 -66T688 -121Q637 -121 597 -92T533 -7Q474 -21 403 -21Q320 -21 253 4T139 75T66 186T40 332Q40 414 66 479T140 591T257 663T411 688Q502 688 579 658T704 572Q742 527 762 467T783 335Q783 268 765 210T713 107Q698 89 680 72T633 34Q650 8 664 -2T698 -12Q753 -12 753 93H844ZM558 144Q603 211 603 333Q603 396 587 451T541 543Q517 573 486 587T409 601Q366 601 331 583T272 530T234 447T220 338Q220 277 231 231T265 144Q278 170 285 181T300 203Q316 221 342 231T397 242Q445 242 483 219T558 144ZM480 75Q458 117 435 136T385 155Q356 155 340 137T321 87Q355 65 415 65Q434 65 447 67T480 75Z"  />
<glyph unicode="R" horiz-adv-x="814" d="M308 129Q308 114 309 108T316 96Q323 90 335 86T362 82H414V0H37V82H89Q106 82 118 86T137 99Q141 104 142 109T143 129V538Q143 553 142 559T135 571Q128 577 116 581T89 585H37V667H521Q616 667 668 625T721 506Q721 442 685 404T574 347Q628 328 650 303T673 235V135Q673 122 675 105T681 82Q686 73 700 73Q732 73 732 135V191H811V135Q811 56 775 19T659 -18Q590 -18 552 13T510 105L504 217Q502 252 495 271T471 300Q466 303 462 305T451 307T436 308T412 309H308V129ZM425 395Q548 395 548 490Q548 515 539 535T512 565Q487 581 412 581H308V395H425Z"  />
<glyph unicode="S" horiz-adv-x="655" d="M601 427H508Q504 459 497 480T477 521Q451 558 407 579T311 601Q254 601 219 576T183 509Q183 493 190 481T212 459T254 441T320 425Q368 415 399 408T452 396T489 385T521 373Q628 326 628 203Q628 98 558 39T365 -21Q294 -21 241 -3T140 54L119 0H40V247H134Q144 206 152 185T173 147Q198 113 247 93T351 72Q408 72 442 96T477 161Q477 206 429 222Q417 226 408 229T381 236T331 248T239 270Q206 277 182 285T139 301T107 320T82 343Q42 391 42 462Q42 514 61 555T114 626T198 672T308 688Q372 688 419 673T508 622L522 667H601V427Z"  />
<glyph unicode="T" horiz-adv-x="681" d="M424 129Q424 114 425 108T432 97Q446 83 478 83H542V0H140V83H205Q240 83 253 99Q257 104 258 109T259 129V581Q252 582 245 582T234 582Q190 582 164 566T125 514Q119 497 116 473T111 406H20V667H661V406H569Q570 414 570 421T570 431Q570 505 540 543T451 582Q445 582 439 582T424 581V129Z"  />
<glyph unicode="U" horiz-adv-x="787" d="M275 235Q275 161 307 126Q327 103 357 91T426 79Q464 79 495 92T546 128Q561 147 567 172T573 244V538Q573 553 572 559T565 571Q558 577 546 581T519 585H476V667H767V585H734Q702 585 690 575T678 538V235Q678 166 663 121T616 46Q580 13 523 -4T390 -21Q322 -21 268 -6T176 39Q110 92 110 209V538Q110 553 109 559T102 571Q95 577 83 581T56 585H13V667H381V585H329Q295 585 281 568Q277 563 276 558T275 538V235Z"  />
<glyph unicode="V" horiz-adv-x="762" d="M556 504Q564 524 566 533T569 551Q569 581 528 581H476V667H772V581H751Q719 581 704 570T676 523Q672 511 668 500T659 477L469 0H319L114 504Q104 529 96 544T79 567T59 578T32 581H0V667H375V581H326Q300 581 291 577T282 558Q282 553 283 548T293 521L426 170L556 504Z"  />
<glyph unicode="W" horiz-adv-x="1045" d="M394 0H263L86 505Q71 547 56 564T19 581H0V667H325V581H287Q264 581 257 577T249 558Q249 553 250 545T257 523L360 212L472 521L464 542Q455 567 445 574T408 581H381V667H729V581H693Q662 581 652 576T641 555Q641 543 648 523L753 212L858 523Q865 544 865 555Q865 571 856 576T814 581H785V667H1045V581H1031Q1019 581 1011 578T995 567T980 543T965 505L785 0H657L529 376L394 0Z"  />
<glyph unicode="X" horiz-adv-x="765" d="M638 153Q668 115 689 101T737 86H754V0H372V86H422Q455 86 455 104Q455 110 453 114T440 132L351 246L258 139Q247 127 241 116T234 100Q234 92 240 89T264 86H312V0H13V86H30Q41 86 57 91T84 104Q91 109 104 122T133 153L288 322L123 533Q115 543 104 554T85 572Q77 577 69 579T40 581H13V667H397V581H343Q315 581 315 569Q315 559 328 542L409 436L508 542Q521 557 521 567Q521 581 497 581H450V667H754V581H728Q711 581 700 579T679 571T656 554T624 523L472 362L638 153Z"  />
<glyph unicode="Y" horiz-adv-x="737" d="M113 525Q100 543 91 554T72 571T53 579T30 581H0V667H387V581H336Q299 581 299 564Q299 559 300 556T313 538L420 381L518 544Q527 559 527 567Q527 575 521 578T498 581H449V667H737V581H718Q702 581 691 579T669 566T643 535T607 481L468 262V129Q468 115 469 109T476 97Q490 83 522 83H584V0H188V83H249Q284 83 297 99Q301 104 302 109T303 129V262L113 525Z"  />
<glyph unicode="Z" horiz-adv-x="653" d="M622 587L228 81H370Q405 81 429 84T471 97T500 121T520 159Q526 177 529 204T537 285H629L622 0H23V81L414 581H271Q191 581 161 548Q139 523 136 482L132 418L130 399H38L44 667H622V587Z"  />
<glyph unicode="[" horiz-adv-x="364" d="M213 -119H317V-200H78V680H317V597H213V-119Z"  />
<glyph unicode="\" horiz-adv-x="395" d="M146 667L375 -200H249L20 667H146Z"  />
<glyph unicode="]" horiz-adv-x="364" d="M48 597V680H287V-200H48V-119H151V597H48Z"  />
<glyph unicode="^" horiz-adv-x="720" d="M117 278L319 696H401L603 278H507L360 595H358L211 278H117Z"  />
<glyph unicode="_" horiz-adv-x="500" d="M0 -50H500V-100H0V-50Z"  />
<glyph unicode="`" horiz-adv-x="500" d="M246 540L129 646Q118 657 110 667T102 683Q102 700 126 700H246L312 540H246Z"  />
<glyph unicode="a" horiz-adv-x="589" d="M580 176V119Q580 48 549 16T450 -17Q358 -17 327 56Q266 -17 169 -17Q103 -17 65 18T27 115Q27 161 48 192T108 238Q118 241 125 243T143 249T175 256T231 269Q285 281 304 297T324 344Q324 381 295 400T211 420Q191 420 180 418T153 408Q177 398 188 385T199 349Q199 320 179 300T126 280Q91 280 68 304T45 365Q45 388 54 410T81 446Q110 472 147 482T246 492Q366 492 418 455T470 330V108Q470 89 474 82T490 74Q503 74 508 84T513 119V176H580ZM322 223Q299 215 286 210T265 203T252 199T240 195Q201 183 189 171T176 131Q176 106 191 91T232 76Q250 76 266 82T294 98T314 121T322 149V223Z"  />
<glyph unicode="b" horiz-adv-x="634" d="M252 422Q287 460 319 476T397 492Q493 492 547 426T601 245Q601 120 545 52T385 -17Q272 -17 228 69L201 0H104V541Q104 566 96 576T68 586H27V667H252V422ZM348 397Q303 397 277 353T250 232Q250 155 274 114T344 73Q392 73 417 115T443 236Q443 314 419 355T348 397Z"  />
<glyph unicode="c" horiz-adv-x="545" d="M512 186Q508 139 490 102T441 38T369 -3T276 -17Q221 -17 177 1T100 51T51 130T33 232Q33 384 141 452Q209 492 291 492Q336 492 373 481T438 451T480 404T495 344Q495 305 473 282T415 258Q381 258 360 278T338 329Q338 348 345 361T373 394Q354 404 341 408T312 412Q256 412 224 364T191 234Q191 158 221 113T303 68Q348 68 378 100T414 186H512Z"  />
<glyph unicode="d" horiz-adv-x="636" d="M532 126Q532 101 540 91T568 81H608V0H392V55Q335 -17 241 -17Q194 -17 156 0T91 49T49 125T34 225Q34 284 49 333T92 417T158 472T244 492Q286 492 316 477T381 424V541Q381 566 373 576T345 586H302V667H532V126ZM292 395Q245 395 219 351T192 227Q192 150 216 109T286 68Q334 68 362 113T391 236Q391 312 366 353T292 395Z"  />
<glyph unicode="e" horiz-adv-x="563" d="M185 220Q191 142 221 106T309 69Q352 69 382 93T427 165H523Q512 80 451 32T291 -17Q231 -17 184 0T103 51T51 131T33 237Q33 295 50 342T100 423T179 474T282 492Q339 492 385 475T463 426T512 349T530 248Q530 244 530 236T529 220H185ZM377 303Q377 351 351 381T283 412Q192 412 186 297H377V303Z"  />
<glyph unicode="f" horiz-adv-x="389" d="M367 477V396H256V126Q256 101 264 91T292 81H351V0H30V81H72Q92 81 100 91T108 126V396H30V477H108L109 491Q110 521 112 542T118 578T128 604T145 626Q168 652 205 666T286 680Q340 680 373 654T406 582Q406 553 389 534T347 515Q324 515 309 530T293 568Q293 579 295 588T306 612Q301 616 298 617T290 618Q276 618 264 603Q256 592 254 579T251 531V477H367Z"  />
<glyph unicode="g" horiz-adv-x="623" d="M112 158Q40 200 40 297Q40 391 100 441T272 492Q296 492 315 490T352 483T387 469T423 449Q448 480 473 493T530 507Q570 507 595 485T620 429Q620 398 602 378T556 358Q532 358 517 372T501 409Q501 420 504 428T518 449Q509 452 504 452Q475 452 454 420Q475 397 484 371T494 309Q494 199 404 151Q345 120 266 120Q201 120 155 138Q129 125 129 103Q129 84 142 76T186 67H193L396 73H415Q457 73 483 69T529 53Q553 39 566 13T580 -46Q580 -89 559 -121T497 -170Q477 -178 455 -184T406 -194T347 -199T273 -201Q205 -201 158 -196T80 -181T37 -153T23 -111Q23 -84 38 -67T90 -36Q25 -18 25 48Q25 85 41 107T100 152L112 158ZM264 430Q228 430 206 398T183 311Q183 251 204 217T264 182Q302 182 324 215T347 304Q347 362 325 396T264 430ZM162 -46Q134 -62 134 -87Q134 -114 167 -126T275 -139Q334 -139 374 -134T430 -117Q436 -113 439 -105T443 -89Q443 -76 438 -68T419 -55T382 -48T323 -46H162Z"  />
<glyph unicode="h" horiz-adv-x="675" d="M256 417Q290 457 326 474T414 492Q457 492 490 480T544 444Q560 425 566 398T573 326V126Q573 101 581 91T609 81H651V0H359V81H389Q409 81 417 91T425 126V303Q425 330 422 344T411 370Q401 383 385 390T349 398Q324 398 303 387T270 355Q262 341 259 324T256 272V126Q256 100 264 91T293 81H319V0H30V81H72Q92 81 100 91T108 126V541Q108 566 100 576T72 586H30V667H256V417Z"  />
<glyph unicode="i" horiz-adv-x="358" d="M257 126Q257 101 264 91T292 81H335V0H30V81H73Q93 81 101 91T109 126V351Q109 376 101 386T73 396H30V477H257V126ZM178 690Q212 690 236 666T260 607Q260 589 254 574T236 548T209 530T177 523Q142 523 118 547T93 607Q93 624 99 639T117 665T144 683T178 690Z"  />
<glyph unicode="j" horiz-adv-x="340" d="M267 -35Q267 -121 222 -168T92 -215Q32 -215 -4 -185T-40 -105Q-40 -72 -21 -51T27 -29Q53 -29 70 -46T88 -89Q88 -127 57 -139Q65 -153 82 -153Q102 -153 110 -134T118 -63V351Q118 377 110 386T82 396H25V477H267V-35ZM185 690Q219 690 243 666T267 607Q267 589 261 574T243 548T216 530T184 523Q149 523 125 547T100 607Q100 624 106 639T124 665T151 683T185 690Z"  />
<glyph unicode="k" horiz-adv-x="663" d="M257 268L390 366Q403 376 403 385Q403 392 399 394T379 396H333V477H640V396H602Q575 396 557 390T515 366L437 307L568 123Q578 109 585 101T597 88T608 82T620 80H640V0H352V81H377Q403 81 403 93Q403 95 401 100T396 110L319 220L257 174V126Q257 100 265 91T294 81H310V0H30V81H73Q93 81 101 91T109 126V541Q109 566 101 576T73 586H30V667H257V268Z"  />
<glyph unicode="l" horiz-adv-x="360" d="M257 126Q257 101 265 91T293 81H337V0H30V81H73Q93 81 101 91T109 126V541Q109 566 101 576T73 586H30V667H257V126Z"  />
<glyph unicode="m" horiz-adv-x="973" d="M244 418Q266 439 285 453T323 476T362 488T405 492Q503 492 550 413Q586 455 624 473T715 492Q784 492 825 456T867 360V126Q867 101 875 91T903 81H946V0H660V81H683Q703 81 711 91T719 126V313Q719 339 717 352T707 376Q690 401 648 401Q561 401 561 287V126Q561 101 569 91T598 81H621V0H352V81H377Q397 81 405 91T413 126V313Q413 361 397 381T343 402Q256 402 256 287V126Q256 101 264 91T292 81H316V0H30V81H72Q92 81 100 91T108 126V351Q108 376 100 386T72 396H30V477H247L244 418Z"  />
<glyph unicode="n" horiz-adv-x="673" d="M247 405Q269 430 288 446T326 473T367 487T414 492Q488 492 529 455T571 350V126Q571 101 579 91T608 81H650V0H360V81H387Q407 81 415 91T423 126V301Q423 353 407 375T351 397Q326 397 305 387T273 359Q257 334 257 277V126Q257 101 265 91T293 81H318V0H33V81H73Q93 81 101 91T109 126V351Q109 376 101 386T73 396H33V477H250L247 405Z"  />
<glyph unicode="o" horiz-adv-x="595" d="M298 492Q358 492 407 474T490 423T543 343T562 237Q562 179 544 132T491 52T407 1T298 -17Q236 -17 187 1T104 52T52 133T33 241Q33 296 53 346T110 429Q181 492 298 492ZM298 412Q247 412 219 367T191 241Q191 155 218 109T298 63Q348 63 376 108T404 236Q404 321 377 366T298 412Z"  />
<glyph unicode="p" horiz-adv-x="635" d="M253 419Q284 457 319 474T404 492Q499 492 550 429T602 248Q602 121 548 52T394 -17Q350 -17 317 -3T255 42V-75Q255 -100 263 -110T291 -120H339V-201H30V-120H71Q91 -120 99 -110T107 -75V351Q107 376 99 386T71 396H30V477H255L253 419ZM350 398Q304 398 279 355T253 234Q253 74 348 74Q395 74 419 116T444 241Q444 398 350 398Z"  />
<glyph unicode="q" horiz-adv-x="630" d="M380 42Q355 11 323 -3T245 -17Q144 -17 89 47T33 230Q33 290 48 338T90 420T156 473T243 492Q331 492 383 421L380 477H603V396H563Q543 396 536 386T528 351V-75Q528 -100 535 -110T563 -120H603V-201H297V-120H344Q364 -120 372 -110T380 -75V42ZM288 394Q243 394 217 352T191 236Q191 155 215 113T284 71Q332 71 357 112T383 232Q383 309 358 351T288 394Z"  />
<glyph unicode="r" horiz-adv-x="497" d="M254 406Q272 430 287 446T316 471T345 484T379 488Q424 488 452 459T480 381Q480 339 458 314T401 289Q369 289 348 309T326 359Q326 374 331 386T352 419Q338 419 332 417T316 407Q259 362 259 245V126Q259 101 266 91T294 81H352V0H30V81H75Q95 81 103 91T111 126V351Q111 376 103 386T75 396H30V477H259L254 406Z"  />
<glyph unicode="s" horiz-adv-x="514" d="M462 309H382Q344 413 235 413Q203 413 183 401T163 369Q163 348 191 335Q198 331 205 329T227 322T265 313T333 298Q408 281 444 244T480 144Q480 66 429 25T282 -17Q229 -17 192 -4T118 42L109 0H33V181H109Q117 155 124 141T141 115Q161 91 195 77T268 63Q304 63 324 76T345 113Q345 124 339 132T315 148T264 165T177 188Q129 199 105 211T63 242Q33 278 33 333Q33 408 83 450T224 492Q275 492 312 480T382 441L391 477H462V309Z"  />
<glyph unicode="t" horiz-adv-x="393" d="M226 474H347V393H226V117Q226 89 232 78T254 66Q271 66 279 79T287 122V199H354V110Q354 -17 223 -17Q78 -17 78 110V393H7V466Q133 490 136 647H226V474Z"  />
<glyph unicode="u" horiz-adv-x="670" d="M563 126Q563 101 571 91T599 81H644V0H415V67Q396 43 378 27T341 2T301 -12T254 -17Q184 -17 144 23Q123 43 114 67T105 131V351Q105 376 97 386T69 396H30V477H253V183Q253 164 254 151T257 129T263 113T274 99Q291 79 322 79Q370 79 396 113Q407 129 411 146T415 199V351Q415 376 407 386T379 396H337V477H563V126Z"  />
<glyph unicode="v" horiz-adv-x="577" d="M407 359Q411 367 413 374T415 386Q415 392 411 394T393 396H354V477H577V396H555Q544 396 537 395T523 388T513 375T502 352L354 0H222L80 359Q75 372 71 379T62 390T50 395T30 396H7V477H306V396H268Q236 396 236 377Q236 370 243 352L320 147L407 359Z"  />
<glyph unicode="w" horiz-adv-x="863" d="M337 0H212L90 362Q86 374 83 381T75 391T63 396T43 397H14V477H297V397H259Q246 397 242 394T237 383Q237 379 237 377T242 362L309 155L383 360Q385 368 386 373T388 382Q388 396 365 396H337V477H611V396H577Q553 396 553 381Q553 377 553 375T558 360L624 155L697 360Q701 371 701 373T702 378Q702 396 675 396H649V477H857V396H835Q823 396 817 395T804 387T792 365T774 323L655 0H528L437 269L337 0Z"  />
<glyph unicode="x" horiz-adv-x="624" d="M117 358Q107 370 100 377T85 388T69 393T48 395H21V477H332V395H298Q281 395 281 386Q281 384 282 381T289 373L341 314L406 373Q413 380 413 385Q413 395 394 395H372V477H610V395H583Q570 395 562 394T547 390T530 379T506 358L394 257L524 107Q537 93 550 87T583 81H610V0H298V81H332Q352 81 352 91Q352 95 351 97T341 107L281 176L212 107Q200 96 200 91Q200 86 205 84T218 81H253V0H13V81H38Q56 81 72 90T114 122L229 230L117 358Z"  />
<glyph unicode="y" horiz-adv-x="584" d="M422 361Q427 374 427 382Q427 390 422 393T403 396H365V477H584V396H564Q554 396 548 395T536 389T526 376T515 352L326 -74Q309 -113 291 -139T252 -183T206 -207T150 -215Q87 -215 49 -183T11 -100Q11 -59 35 -32T95 -5Q125 -5 145 -24T166 -74Q166 -99 152 -113T106 -135Q114 -146 122 -149T145 -153Q161 -153 174 -147T200 -127T226 -88T254 -29L84 361Q74 383 65 389T30 396H7V477H311V396H270Q254 396 248 393T242 382Q242 374 246 366L333 153L422 361Z"  />
<glyph unicode="z" horiz-adv-x="539" d="M513 413L221 81H312Q362 81 385 94T418 140Q422 153 423 170T427 224H513V0H28V75L312 396H229Q191 396 174 392T148 376Q129 350 125 268H42L47 477H513V413Z"  />
<glyph unicode="{" horiz-adv-x="310" d="M286 -200Q240 -200 204 -192T144 -166T106 -117T93 -41V109Q93 164 81 194T32 240Q51 248 62 259T81 285T90 321T93 370V520Q93 565 106 596T143 645T204 672T286 680V634Q272 632 262 626T244 607T232 574T228 522V387Q228 326 216 291T159 241V239Q203 223 215 188T228 92V-42Q228 -104 243 -127T286 -154V-200Z"  />
<glyph unicode="|" horiz-adv-x="500" d="M203 740H296V-90H203V740Z"  />
<glyph unicode="}" horiz-adv-x="310" d="M32 -154Q49 -151 60 -143T78 -120T87 -79T90 -14V93Q90 153 102 188T159 239V241Q115 256 103 291T90 387V494Q90 533 87 558T78 600T60 623T32 634V680Q78 680 113 672T174 646T212 597T225 521V370Q225 342 227 322T236 286T255 259T286 240Q267 232 255 221T237 195T228 159T225 110V-41Q225 -86 212 -116T174 -165T114 -192T32 -200V-154Z"  />
<glyph unicode="~" horiz-adv-x="720" d="M68 197Q68 245 81 278T115 333T163 364T220 374Q252 374 290 361T367 331T442 302T504 288Q514 288 525 292T545 307T560 332T567 370H652Q650 316 638 282T606 227T559 200T503 192Q466 192 428 205T353 235T283 266T222 280Q193 280 174 258T152 197H68Z"  />
<glyph unicode="&#xA0;" horiz-adv-x="250" />
<glyph unicode="&#xA1;" horiz-adv-x="285" d="M145 494Q180 494 204 469T229 409Q229 374 204 349T144 324Q109 324 84 349T59 410Q59 445 84 469T145 494ZM225 -70Q226 -79 226 -88T227 -109Q227 -153 205 -177T143 -201Q104 -201 80 -176T56 -108Q56 -101 56 -91T59 -70L109 281H180L225 -70Z"  />
<glyph unicode="&#xA2;" horiz-adv-x="571" d="M342 578Q419 571 463 533T508 436Q508 398 486 375T428 352Q393 352 373 371T352 422Q352 441 359 456T384 485Q369 494 359 497T331 500Q270 500 237 456T204 327Q204 249 234 204T318 159Q346 159 371 175T409 216Q415 228 418 239T429 279H525Q523 241 509 206T469 144T412 98T342 75V-11H270V75Q164 83 105 149T46 325Q46 435 103 500T270 580V671H342V578Z"  />
<glyph unicode="&#xA3;" horiz-adv-x="571" d="M402 353V274H276Q275 253 273 238T263 208T241 175T203 129L191 114Q209 122 222 127T245 135T265 139T285 140Q303 140 321 136T367 122Q390 114 401 112T424 109Q464 109 464 153V197H542L540 119Q539 58 507 24T417 -10Q402 -10 390 -9T364 -5T334 2T294 15Q250 29 227 34T186 40Q132 40 78 -8L55 83Q105 119 128 155T151 235Q151 246 146 274H55V353H111Q96 383 89 400T77 428T73 447T72 469Q72 512 90 548T141 610T219 651T317 666Q366 666 407 654T476 621T521 569T537 502Q537 459 513 433T449 406Q416 406 396 425T375 477Q375 503 386 516T426 541L435 545Q416 563 399 570T353 577Q296 577 264 549T231 472Q231 462 231 455T234 438T243 411T260 363L263 353H402Z"  />
<glyph unicode="&#xA4;" horiz-adv-x="591" d="M295 544Q330 544 360 534T411 507L486 587L544 527L460 452Q472 432 482 403T493 335Q493 293 483 263T458 214L539 136L482 78L410 161Q387 141 356 131T293 120Q262 120 231 130T178 159L108 78L52 136L130 211Q116 231 105 261T94 331Q94 373 105 402T130 452L48 526L106 587L179 505Q226 544 295 544ZM294 457Q249 457 220 422T191 332Q191 300 200 277T225 238T258 215T293 207Q311 207 329 214T363 237T387 277T396 334Q396 359 389 381T369 420T336 447T294 457Z"  />
<glyph unicode="&#xA5;" horiz-adv-x="571" d="M380 479Q389 498 394 510T403 529T407 542T408 553Q408 573 393 581T340 592V666H608V592Q586 590 572 587T545 574T522 549T497 506L463 436H572V353H421L390 288H572V206H362V149Q362 127 364 114T373 95T396 86T436 84H461V0H115V84H151Q170 85 180 85T195 86T203 88T207 93Q216 105 216 149V206H6V288H188L151 353H6V436H106L71 502Q57 526 45 543T20 570T-7 586T-39 592V666H273V592Q233 590 218 582T202 553Q202 534 219 503L310 339L380 479Z"  />
<glyph unicode="&#xA6;" horiz-adv-x="500" d="M203 260H296V-90H203V260ZM203 740H296V390H203V740Z"  />
<glyph unicode="&#xA7;" horiz-adv-x="571" d="M369 600Q350 610 335 613T300 617Q255 617 225 595T194 541Q194 515 218 497T308 457Q348 443 371 436T408 423T431 413T452 401Q524 360 524 281Q524 234 502 200T425 134Q463 108 479 80T496 12Q496 -32 479 -67T431 -129T355 -169T258 -183Q216 -183 180 -173T118 -145T78 -103T63 -49Q63 -13 86 11T145 36Q176 36 195 18T214 -30Q214 -48 208 -61T182 -91Q199 -102 213 -106T251 -111Q306 -111 342 -85T378 -20Q378 -5 373 7T354 29T318 49T261 68Q202 84 171 96T114 124Q47 166 47 241Q47 292 72 331T143 389Q111 415 97 443T82 510Q82 548 98 581T144 638T214 675T301 689Q342 689 376 680T436 655T475 616T489 566Q489 531 468 509T415 486Q386 486 366 503T346 547Q346 553 346 557T349 567T355 578T365 594L369 600ZM219 353Q191 353 172 334T153 285Q153 263 168 244T212 213Q231 205 252 198T293 184T328 175T352 171Q378 171 397 191T416 238Q416 261 403 277T359 306Q296 333 266 343T219 353Z"  />
<glyph unicode="&#xA8;" horiz-adv-x="500" d="M143 677Q169 677 187 659T205 614Q205 587 187 569T142 550Q115 550 97 568T78 614Q78 640 97 658T143 677ZM360 677Q386 677 404 659T422 614Q422 587 404 569T359 550Q332 550 314 568T295 614Q295 640 314 658T360 677Z"  />
<glyph unicode="&#xA9;" horiz-adv-x="773" d="M563 367H501Q498 418 473 445T402 473Q351 473 322 436T293 333Q293 267 321 231T401 195Q488 195 506 295L507 298H572Q562 219 514 176T388 132Q343 132 306 146T241 187T199 250T184 330Q184 375 199 413T241 478T305 520T388 535Q422 535 447 527T500 498L512 527H563V367ZM392 688Q463 688 526 660T636 584T711 471T739 333Q739 260 712 196T636 83T524 7T387 -21Q314 -21 250 7T137 83T61 195T33 333Q33 408 61 472T137 585T251 660T392 688ZM391 619Q332 619 281 597T191 536T131 445T109 333Q109 274 131 222T190 132T279 71T387 48Q444 48 494 70T581 131T641 222T663 333Q663 391 642 443T583 534T496 596T391 619Z"  />
<glyph unicode="&#xAA;" horiz-adv-x="381" d="M335 508V476Q335 405 265 405Q217 405 201 438Q171 405 122 405Q87 405 67 424T46 475Q46 507 63 523T123 548Q143 553 157 556T179 562Q191 567 194 572T197 589Q197 605 184 614T147 623Q141 623 136 623T122 621Q133 612 136 606T140 591Q140 574 129 564T100 553Q80 553 68 566T55 599Q55 631 82 648T161 666Q224 666 251 647T278 581V470Q278 457 285 457Q294 457 294 476V508H335ZM196 524Q182 519 175 516T159 511Q140 505 135 500T129 483Q129 458 154 458Q171 458 183 468T196 491V524ZM328 295H53V352H328V295Z"  />
<glyph unicode="&#xAB;" horiz-adv-x="467" d="M237 413L173 293Q163 274 158 260T152 237Q152 231 152 228T155 219T161 206T174 184L237 74H154L59 192Q37 220 37 244Q37 266 58 293L154 413H237ZM414 413L350 293Q329 254 329 237Q329 231 329 228T332 219T339 206T352 184L414 74H331L237 192Q214 220 214 244Q214 267 236 293L331 413H414Z"  />
<glyph unicode="&#xAC;" horiz-adv-x="720" d="M553 331H79V414H641V112H553V331Z"  />
<glyph unicode="&#xAD;" horiz-adv-x="291" d="M291 306V181H0V306H291Z"  />
<glyph unicode="&#xAE;" horiz-adv-x="400" d="M176 423Q176 415 179 413T190 411H201V383H100V411H110Q118 411 121 413T124 423V541Q124 553 110 553H100V580H223Q252 580 268 568T284 533Q284 523 281 514T272 499Q269 496 266 495T247 487L246 486L247 485Q250 483 253 482T259 478Q264 475 267 468T270 453V424Q270 408 276 408Q284 408 284 424V442H310V424Q310 378 265 378Q221 378 219 415L217 448Q216 464 211 468T191 473H176V423ZM195 501Q230 501 230 527Q230 541 222 546T191 552H176V501H195ZM203 666Q240 666 272 652T329 612T368 553T383 482Q383 444 369 411T330 352T272 313T201 298Q163 298 130 312T71 352T32 410T17 482Q17 521 31 554T71 612T130 651T203 666ZM203 630Q172 630 146 619T99 587T68 540T56 482Q56 451 67 424T98 377T144 346T201 334Q230 334 256 345T301 377T332 424T344 482Q344 512 333 539T302 586T257 618T203 630Z"  />
<glyph unicode="&#xAF;" horiz-adv-x="500" d="M441 570H60V653H441V570Z"  />
<glyph unicode="&#xB0;" horiz-adv-x="500" d="M250 660Q282 660 310 648T360 616T393 568T405 509Q405 477 393 450T360 402T311 369T251 357Q218 357 190 369T141 402T108 451T96 511Q96 541 108 568T141 616T190 648T250 660ZM250 584Q218 584 196 562T173 510Q173 478 195 456T251 433Q283 433 305 455T328 509Q328 540 305 562T250 584Z"  />
<glyph unicode="&#xB1;" horiz-adv-x="720" d="M315 315H78V398H315V579H404V398H642V315H404V129H315V315ZM78 83H642V0H78V83Z"  />
<glyph unicode="&#xB2;" horiz-adv-x="388" d="M354 404V363Q354 311 331 284T264 257Q247 257 228 261T179 276Q144 289 133 292T113 295Q101 295 97 288T92 263H29V282Q29 312 34 335T53 377T89 413T145 449Q171 463 187 473T213 494T225 514T229 539Q229 568 209 584T155 601Q132 601 116 594T94 574L106 575Q124 575 137 562T151 529Q151 507 134 493T91 479Q61 479 43 497T24 546Q24 571 36 592T69 629T120 653T185 662Q257 662 300 630T343 541Q343 497 317 468T230 416Q196 403 177 396T147 382T127 369T107 350Q123 357 132 359T152 362Q158 362 161 362T171 361T187 357T217 350Q236 345 247 343T266 341Q296 341 296 377V404H354Z"  />
<glyph unicode="&#xB3;" horiz-adv-x="387" d="M150 493Q195 495 214 507T233 546Q233 574 214 589T159 605Q146 605 140 603T126 595Q142 585 147 577T153 556Q153 533 138 519T96 505Q69 505 52 521T34 564Q34 608 76 635T186 662Q257 662 300 634T343 557Q343 529 329 512T275 473Q310 463 330 439T351 379Q351 352 338 330T302 291T245 266T172 257Q107 257 67 284T26 354Q26 382 45 401T92 421Q116 421 132 406T149 368Q149 353 143 344T118 325Q129 319 138 317T161 314Q195 314 215 332T235 381Q235 440 165 440Q163 440 159 440T150 439V493Z"  />
<glyph unicode="&#xB4;" horiz-adv-x="500" d="M254 700H374Q398 700 398 683Q398 678 391 668T371 646L254 540H188L254 700Z"  />
<glyph unicode="&#xB5;" horiz-adv-x="657" d="M9 -144Q51 -144 69 -136T87 -99V411Q87 438 69 447T9 456V500L255 508V134Q255 95 272 79T318 62Q355 62 377 89T399 174V411Q399 438 383 447T335 456V500L567 508V93Q567 66 585 57T648 48V4L405 -2V62H403Q394 45 377 34T338 16T295 6T255 3V-189H9V-144Z"  />
<glyph unicode="&#xB6;" horiz-adv-x="667" d="M217 321H204Q165 321 132 333T76 368T40 422T27 491Q27 543 49 582T114 642Q137 654 175 660T258 667H593V567H520V-92H410V567H327V-92H217V321Z"  />
<glyph unicode="&#xB7;" horiz-adv-x="271" d="M137 329Q172 329 196 304T221 244Q221 209 196 184T136 159Q101 159 76 184T51 245Q51 280 76 304T137 329Z"  />
<glyph unicode="&#xB8;" horiz-adv-x="500" d="M251 -58Q260 -56 266 -56T279 -55Q317 -55 341 -74T365 -122Q365 -164 331 -190T243 -216Q215 -216 191 -210T135 -190L155 -145Q197 -160 227 -160Q247 -160 259 -151T271 -128Q271 -114 260 -105T230 -96Q223 -96 216 -97T194 -101L175 -82L230 0H288L251 -58Z"  />
<glyph unicode="&#xB9;" horiz-adv-x="388" d="M257 341Q257 327 263 322T289 317H340V262H73V317H121Q139 317 145 322T152 341V528H73V584L84 585Q106 587 122 591T151 604T171 625T186 656H257V341Z"  />
<glyph unicode="&#xBA;" horiz-adv-x="368" d="M185 666Q248 666 285 632T322 537Q322 476 285 441T184 405Q119 405 83 439T46 533Q46 596 83 631T185 666ZM185 619Q160 619 147 598T133 537Q133 452 183 452Q208 452 221 473T235 536Q235 575 222 597T185 619ZM316 295H53V352H316V295Z"  />
<glyph unicode="&#xBB;" horiz-adv-x="467" d="M409 293Q430 266 430 244Q430 233 424 219T408 192L314 74H230L293 184Q300 197 304 205T311 218T314 227T315 237Q315 245 310 260T295 293L230 413H314L409 293ZM232 293Q253 266 253 244Q253 220 231 192L136 74H53L116 184Q124 197 128 205T135 218T137 228T138 237Q138 245 133 260T117 293L53 413H136L232 293Z"  />
<glyph unicode="&#xBC;" horiz-adv-x="894" d="M257 341Q257 327 263 322T289 317H340V262H73V317H121Q139 317 145 322T152 341V528H73V584L84 585Q106 587 122 591T151 604T171 625T186 656H257V341ZM666 667L297 0H228L597 667H666ZM814 162H867V103H814V79Q814 65 820 60T845 55H867V0H646V55H679Q698 55 704 60T711 79V103H543V165L728 394H814V162ZM711 279L618 162H711V279Z"  />
<glyph unicode="&#xBD;" horiz-adv-x="894" d="M257 341Q257 327 263 322T289 317H340V262H73V317H121Q139 317 145 322T152 341V528H73V584L84 585Q106 587 122 591T151 604T171 625T186 656H257V341ZM666 667L297 0H228L597 667H666ZM860 142V101Q860 49 837 22T770 -6Q753 -6 734 -2T685 13Q650 26 638 29T619 33Q608 33 604 26T598 0H535V20Q535 50 540 72T559 114T595 151T651 186Q677 200 693 210T719 231T731 251T735 276Q735 304 715 320T661 337Q639 337 622 330T600 311Q605 312 612 312Q630 312 643 299T657 266Q657 245 640 231T597 217Q567 217 549 235T530 284Q530 309 542 330T575 366T626 390T691 399Q763 399 806 367T849 279Q849 234 823 206T736 154Q703 141 684 134T653 120T633 106T613 87Q630 94 639 96T658 99Q664 99 667 99T677 98T693 94T723 87Q742 82 753 80T772 78Q802 78 802 115V142H860Z"  />
<glyph unicode="&#xBE;" horiz-adv-x="894" d="M150 493Q195 495 213 507T232 547Q232 574 213 589T160 605Q147 605 140 603T126 595Q141 586 147 578T153 556Q153 533 137 519T95 505Q68 505 51 521T34 564Q34 608 76 635T187 662Q258 662 300 633T343 556Q343 530 328 512T275 473Q311 463 331 438T351 378Q351 351 338 329T302 291T245 266T173 257Q107 257 67 284T26 354Q26 382 45 401T92 421Q116 421 132 406T149 368Q149 354 142 345T118 325Q137 314 163 314Q195 314 215 332T235 381Q235 440 165 440Q163 440 159 440T150 439V493ZM666 667L296 0H227L597 667H666ZM813 162H867V103H813V79Q813 65 819 60T844 55H866V0H645V55H678Q697 55 703 60T710 79V103H543V165L727 394H813V162ZM710 279L618 162H710V279Z"  />
<glyph unicode="&#xBF;" horiz-adv-x="547" d="M275 494Q310 494 334 469T359 409Q359 374 334 349T274 324Q239 324 214 349T189 410Q189 445 214 469T275 494ZM319 281Q320 274 320 269T320 260Q320 219 298 181Q295 176 291 171T280 157T263 135T237 103Q211 71 199 45T187 -7Q187 -52 221 -80T309 -108Q352 -108 377 -93T408 -48L392 -49Q361 -49 341 -29T321 22Q321 57 345 80T406 103Q451 103 479 72T507 -12Q507 -54 490 -89T441 -148T365 -187T268 -201Q214 -201 170 -188T94 -151T45 -93T27 -18Q27 62 94 123Q99 128 123 146T189 196Q212 214 220 232T229 281H319Z"  />
<glyph unicode="&#xC0;" horiz-adv-x="841" d="M262 210L240 153Q237 143 233 127T229 106Q229 93 240 89T284 84H314V0H17V84H34Q69 84 87 96T120 141Q125 152 130 162T140 183Q147 197 152 208T160 230L337 667H489L697 188Q711 155 722 135T746 103T772 88T808 84H824V0H454V84H489Q547 84 547 110Q547 123 537 147L511 210H262ZM379 516L294 296H472L379 516ZM420 730L250 811Q221 822 213 829T205 848Q205 862 224 862H401L506 730H420Z"  />
<glyph unicode="&#xC1;" horiz-adv-x="841" d="M262 210L240 153Q237 143 233 127T229 106Q229 93 240 89T284 84H314V0H17V84H34Q69 84 87 96T120 141Q125 152 130 162T140 183Q147 197 152 208T160 230L337 667H489L697 188Q711 155 722 135T746 103T772 88T808 84H824V0H454V84H489Q547 84 547 110Q547 123 537 147L511 210H262ZM379 516L294 296H472L379 516ZM429 862H606Q625 862 625 848Q625 836 617 830T580 811L411 730H324L429 862Z"  />
<glyph unicode="&#xC2;" horiz-adv-x="841" d="M262 210L240 153Q237 143 233 127T229 106Q229 93 240 89T284 84H314V0H17V84H34Q69 84 87 96T120 141Q125 152 130 162T140 183Q147 197 152 208T160 230L337 667H489L697 188Q711 155 722 135T746 103T772 88T808 84H824V0H454V84H489Q547 84 547 110Q547 123 537 147L511 210H262ZM379 516L294 296H472L379 516ZM496 862L616 730H480L402 807L330 730H215L334 862H496Z"  />
<glyph unicode="&#xC3;" horiz-adv-x="841" d="M262 210L240 153Q237 143 233 127T229 106Q229 93 240 89T284 84H314V0H17V84H34Q69 84 87 96T120 141Q125 152 130 162T140 183Q147 197 152 208T160 230L337 667H489L697 188Q711 155 722 135T746 103T772 88T808 84H824V0H454V84H489Q547 84 547 110Q547 123 537 147L511 210H262ZM379 516L294 296H472L379 516ZM203 737Q220 798 252 825T338 853Q361 853 383 850T438 837Q470 828 482 826T505 823Q519 823 527 829T540 853H628Q619 798 586 767T503 736Q495 736 488 736T470 738T446 743T411 751Q373 760 357 763T332 766Q300 766 290 737H203Z"  />
<glyph unicode="&#xC4;" horiz-adv-x="841" d="M262 210L240 153Q237 143 233 127T229 106Q229 93 240 89T284 84H314V0H17V84H34Q69 84 87 96T120 141Q125 152 130 162T140 183Q147 197 152 208T160 230L337 667H489L697 188Q711 155 722 135T746 103T772 88T808 84H824V0H454V84H489Q547 84 547 110Q547 123 537 147L511 210H262ZM379 516L294 296H472L379 516ZM295 860Q321 860 339 842T357 797Q357 770 339 752T294 733Q267 733 249 751T230 797Q230 823 249 841T295 860ZM538 860Q564 860 582 842T600 797Q600 770 582 752T537 733Q510 733 492 751T473 797Q473 823 492 841T538 860Z"  />
<glyph unicode="&#xC5;" horiz-adv-x="841" d="M262 210L240 153Q237 143 233 127T229 106Q229 93 240 89T284 84H314V0H17V84H34Q69 84 87 96T120 141Q125 152 130 162T140 183Q147 197 152 208T160 230L337 667H489L697 188Q711 155 722 135T746 103T772 88T808 84H824V0H454V84H489Q547 84 547 110Q547 123 537 147L511 210H262ZM379 516L294 296H472L379 516ZM417 903Q436 903 452 896T482 875T502 845T510 808Q510 788 503 771T483 741T453 721T415 713Q375 713 348 741T320 809Q320 828 327 845T348 875T379 895T417 903ZM416 850Q398 850 386 838T373 808Q373 791 385 779T415 766Q432 766 444 778T457 808Q457 825 445 837T416 850Z"  />
<glyph unicode="&#xC6;" horiz-adv-x="1105" d="M285 255L216 143Q205 125 202 118T198 103Q198 92 207 88T240 84H292V0H7V84H20Q46 84 64 105Q67 108 69 110T75 118T86 133T105 160L343 535Q355 553 355 562Q355 582 317 582H251V667H1049V407H960V417Q960 447 954 478T936 533Q929 547 920 556T895 570T858 578T806 581H666V390H715Q751 390 764 403T778 451V503H868V183H778V229Q778 269 764 285T716 302H666V86H805Q857 86 885 95T928 128Q937 141 942 155T952 188T958 231T960 287H1049V0H395V82H447Q464 82 476 86T495 99Q499 104 500 109T501 129V255H285ZM501 581H489L339 341H501V581Z"  />
<glyph unicode="&#xC7;" horiz-adv-x="755" d="M378 -58Q387 -56 393 -56T407 -55Q445 -55 469 -74T493 -122Q493 -164 459 -190T370 -216Q342 -216 318 -210T262 -190L282 -145Q325 -160 355 -160Q375 -160 387 -151T399 -128Q399 -114 388 -105T358 -96Q351 -96 343 -97T321 -101L302 -82L345 -18Q276 -10 220 19T123 93T62 197T40 327Q40 406 66 472T138 587T249 661T391 688Q421 688 447 685T497 673T544 651T592 618L614 673H694V400H597Q591 489 544 538T416 588Q371 588 335 571T273 520T234 440T220 333Q220 212 271 146T413 79Q492 79 540 126T606 264H708Q702 201 677 149T612 60T518 1T402 -21L378 -58Z"  />
<glyph unicode="&#xC8;" horiz-adv-x="781" d="M720 406H632Q628 462 621 496T597 549T554 574T484 581H308V387H376Q420 387 436 404T453 466V501H542V183H453V223Q453 269 438 284T376 300H308V86H497Q569 86 600 133T632 286H725L720 0H37V82H89Q106 82 118 86T137 99Q141 104 142 109T143 129V538Q143 553 142 559T135 571Q128 577 116 581T89 585H37V667H720V406ZM400 730L230 811Q201 822 193 829T185 848Q185 862 204 862H381L486 730H400Z"  />
<glyph unicode="&#xC9;" horiz-adv-x="781" d="M720 406H632Q628 462 621 496T597 549T554 574T484 581H308V387H376Q420 387 436 404T453 466V501H542V183H453V223Q453 269 438 284T376 300H308V86H497Q569 86 600 133T632 286H725L720 0H37V82H89Q106 82 118 86T137 99Q141 104 142 109T143 129V538Q143 553 142 559T135 571Q128 577 116 581T89 585H37V667H720V406ZM409 862H586Q605 862 605 848Q605 836 597 830T560 811L391 730H304L409 862Z"  />
<glyph unicode="&#xCA;" horiz-adv-x="781" d="M720 406H632Q628 462 621 496T597 549T554 574T484 581H308V387H376Q420 387 436 404T453 466V501H542V183H453V223Q453 269 438 284T376 300H308V86H497Q569 86 600 133T632 286H725L720 0H37V82H89Q106 82 118 86T137 99Q141 104 142 109T143 129V538Q143 553 142 559T135 571Q128 577 116 581T89 585H37V667H720V406ZM476 862L596 730H460L382 807L310 730H195L314 862H476Z"  />
<glyph unicode="&#xCB;" horiz-adv-x="781" d="M720 406H632Q628 462 621 496T597 549T554 574T484 581H308V387H376Q420 387 436 404T453 466V501H542V183H453V223Q453 269 438 284T376 300H308V86H497Q569 86 600 133T632 286H725L720 0H37V82H89Q106 82 118 86T137 99Q141 104 142 109T143 129V538Q143 553 142 559T135 571Q128 577 116 581T89 585H37V667H720V406ZM275 860Q301 860 319 842T337 797Q337 770 319 752T274 733Q247 733 229 751T210 797Q210 823 229 841T275 860ZM518 860Q544 860 562 842T580 797Q580 770 562 752T517 733Q490 733 472 751T453 797Q453 823 472 841T518 860Z"  />
<glyph unicode="&#xCC;" horiz-adv-x="441" d="M308 129Q308 114 309 108T316 96Q323 90 335 86T362 82H405V0H37V82H89Q106 82 118 86T137 99Q141 104 142 109T143 129V538Q143 553 142 559T135 571Q128 577 116 581T89 585H37V667H405V585H362Q328 585 314 568Q310 563 309 558T308 538V129ZM227 730L57 811Q28 822 20 829T12 848Q12 862 31 862H208L313 730H227Z"  />
<glyph unicode="&#xCD;" horiz-adv-x="441" d="M308 129Q308 114 309 108T316 96Q323 90 335 86T362 82H405V0H37V82H89Q106 82 118 86T137 99Q141 104 142 109T143 129V538Q143 553 142 559T135 571Q128 577 116 581T89 585H37V667H405V585H362Q328 585 314 568Q310 563 309 558T308 538V129ZM236 862H413Q432 862 432 848Q432 836 424 830T387 811L218 730H131L236 862Z"  />
<glyph unicode="&#xCE;" horiz-adv-x="441" d="M298 862L415 730H278L207 807L142 730H27L142 862H298ZM308 129Q308 114 309 108T316 96Q323 90 335 86T362 82H405V0H37V82H89Q106 82 118 86T137 99Q141 104 142 109T143 129V538Q143 553 142 559T135 571Q128 577 116 581T89 585H37V667H405V585H362Q328 585 314 568Q310 563 309 558T308 538V129Z"  />
<glyph unicode="&#xCF;" horiz-adv-x="441" d="M134 860Q160 860 178 842T196 797Q196 770 178 752T133 733Q106 733 88 751T69 797Q69 823 88 841T134 860ZM311 860Q337 860 355 842T373 797Q373 770 355 752T310 733Q283 733 265 751T246 797Q246 823 265 841T311 860ZM308 129Q308 114 309 108T316 96Q323 90 335 86T362 82H405V0H37V82H89Q106 82 118 86T137 99Q141 104 142 109T143 129V538Q143 553 142 559T135 571Q128 577 116 581T89 585H37V667H405V585H362Q328 585 314 568Q310 563 309 558T308 538V129Z"  />
<glyph unicode="&#xD0;" horiz-adv-x="823" d="M37 304V387H143V538Q143 553 142 559T135 571Q128 577 116 581T89 585H37V667H479Q550 667 606 646T702 584T762 484T783 351Q783 271 760 206T694 95T591 25T456 0H37V82H89Q106 82 118 86T137 99Q141 104 142 109T143 129V304H37ZM393 86Q453 86 487 98T546 140Q603 207 603 344Q603 408 591 451T550 527Q524 557 491 569T401 581H308V387H455V304H308V86H393Z"  />
<glyph unicode="&#xD1;" horiz-adv-x="867" d="M639 209V538Q639 553 638 559T631 571Q624 577 612 581T585 585H538V667H837V584H798Q763 584 750 568Q746 563 745 558T744 538V0H583L248 468V129Q248 114 249 108T256 96Q263 90 275 86T302 82H354V0H37V82H89Q106 82 118 86T137 99Q141 104 142 109T143 129V538Q143 553 142 559T135 571Q128 577 116 581T89 585H37V667H312L639 209ZM216 737Q233 798 265 825T351 853Q374 853 396 850T451 837Q483 828 495 826T518 823Q532 823 540 829T553 853H641Q632 798 599 767T516 736Q508 736 501 736T483 738T459 743T424 751Q386 760 370 763T345 766Q313 766 303 737H216Z"  />
<glyph unicode="&#xD2;" horiz-adv-x="825" d="M413 688Q498 688 567 663T684 592T759 481T785 334Q785 253 759 188T685 76T568 4T414 -21Q327 -21 258 4T141 75T66 188T40 339Q40 417 69 487T153 603Q252 688 413 688ZM411 601Q367 601 332 583T271 530T233 447T220 337Q220 208 270 137T411 66Q501 66 551 137T602 334Q602 459 552 530T411 601ZM417 730L247 811Q218 822 210 829T202 848Q202 862 221 862H398L503 730H417Z"  />
<glyph unicode="&#xD3;" horiz-adv-x="825" d="M413 688Q498 688 567 663T684 592T759 481T785 334Q785 253 759 188T685 76T568 4T414 -21Q327 -21 258 4T141 75T66 188T40 339Q40 417 69 487T153 603Q252 688 413 688ZM411 601Q367 601 332 583T271 530T233 447T220 337Q220 208 270 137T411 66Q501 66 551 137T602 334Q602 459 552 530T411 601ZM426 862H603Q622 862 622 848Q622 836 614 830T577 811L408 730H321L426 862Z"  />
<glyph unicode="&#xD4;" horiz-adv-x="825" d="M413 688Q498 688 567 663T684 592T759 481T785 334Q785 253 759 188T685 76T568 4T414 -21Q327 -21 258 4T141 75T66 188T40 339Q40 417 69 487T153 603Q252 688 413 688ZM411 601Q367 601 332 583T271 530T233 447T220 337Q220 208 270 137T411 66Q501 66 551 137T602 334Q602 459 552 530T411 601ZM493 862L613 730H477L399 807L327 730H212L331 862H493Z"  />
<glyph unicode="&#xD5;" horiz-adv-x="825" d="M413 688Q498 688 567 663T684 592T759 481T785 334Q785 253 759 188T685 76T568 4T414 -21Q327 -21 258 4T141 75T66 188T40 339Q40 417 69 487T153 603Q252 688 413 688ZM411 601Q367 601 332 583T271 530T233 447T220 337Q220 208 270 137T411 66Q501 66 551 137T602 334Q602 459 552 530T411 601ZM200 737Q217 798 249 825T335 853Q358 853 380 850T435 837Q467 828 479 826T502 823Q516 823 524 829T537 853H625Q616 798 583 767T500 736Q492 736 485 736T467 738T443 743T408 751Q370 760 354 763T329 766Q297 766 287 737H200Z"  />
<glyph unicode="&#xD6;" horiz-adv-x="825" d="M413 688Q498 688 567 663T684 592T759 481T785 334Q785 253 759 188T685 76T568 4T414 -21Q327 -21 258 4T141 75T66 188T40 339Q40 417 69 487T153 603Q252 688 413 688ZM411 601Q367 601 332 583T271 530T233 447T220 337Q220 208 270 137T411 66Q501 66 551 137T602 334Q602 459 552 530T411 601ZM292 860Q318 860 336 842T354 797Q354 770 336 752T291 733Q264 733 246 751T227 797Q227 823 246 841T292 860ZM535 860Q561 860 579 842T597 797Q597 770 579 752T534 733Q507 733 489 751T470 797Q470 823 489 841T535 860Z"  />
<glyph unicode="&#xD7;" horiz-adv-x="720" d="M127 442L185 501L360 324L537 504L596 444L419 264L594 87L536 28L360 206L183 25L124 85L302 265L127 442Z"  />
<glyph unicode="&#xD8;" horiz-adv-x="825" d="M707 568Q786 470 786 332Q786 251 760 186T685 75T568 4T414 -21Q273 -21 176 46L91 -39L39 15L121 96Q40 195 40 334Q40 415 66 480T141 591T258 663T412 688Q485 688 544 671T652 619L732 698L785 644L707 568ZM272 134Q299 99 333 83T412 66Q503 66 553 137T603 337Q603 372 599 399T586 454L272 134ZM554 526Q504 601 411 601Q320 601 270 530T220 329Q220 294 224 267T238 207L554 526Z"  />
<glyph unicode="&#xD9;" horiz-adv-x="787" d="M275 235Q275 161 307 126Q327 103 357 91T426 79Q464 79 495 92T546 128Q561 147 567 172T573 244V538Q573 553 572 559T565 571Q558 577 546 581T519 585H476V667H767V585H734Q702 585 690 575T678 538V235Q678 166 663 121T616 46Q580 13 523 -4T390 -21Q322 -21 268 -6T176 39Q110 92 110 209V538Q110 553 109 559T102 571Q95 577 83 581T56 585H13V667H381V585H329Q295 585 281 568Q277 563 276 558T275 538V235ZM414 730L244 811Q215 822 207 829T199 848Q199 862 218 862H395L500 730H414Z"  />
<glyph unicode="&#xDA;" horiz-adv-x="787" d="M275 235Q275 161 307 126Q327 103 357 91T426 79Q464 79 495 92T546 128Q561 147 567 172T573 244V538Q573 553 572 559T565 571Q558 577 546 581T519 585H476V667H767V585H734Q702 585 690 575T678 538V235Q678 166 663 121T616 46Q580 13 523 -4T390 -21Q322 -21 268 -6T176 39Q110 92 110 209V538Q110 553 109 559T102 571Q95 577 83 581T56 585H13V667H381V585H329Q295 585 281 568Q277 563 276 558T275 538V235ZM423 862H600Q619 862 619 848Q619 836 611 830T574 811L405 730H318L423 862Z"  />
<glyph unicode="&#xDB;" horiz-adv-x="787" d="M275 235Q275 161 307 126Q327 103 357 91T426 79Q464 79 495 92T546 128Q561 147 567 172T573 244V538Q573 553 572 559T565 571Q558 577 546 581T519 585H476V667H767V585H734Q702 585 690 575T678 538V235Q678 166 663 121T616 46Q580 13 523 -4T390 -21Q322 -21 268 -6T176 39Q110 92 110 209V538Q110 553 109 559T102 571Q95 577 83 581T56 585H13V667H381V585H329Q295 585 281 568Q277 563 276 558T275 538V235ZM490 862L610 730H474L396 807L324 730H209L328 862H490Z"  />
<glyph unicode="&#xDC;" horiz-adv-x="787" d="M275 235Q275 161 307 126Q327 103 357 91T426 79Q464 79 495 92T546 128Q561 147 567 172T573 244V538Q573 553 572 559T565 571Q558 577 546 581T519 585H476V667H767V585H734Q702 585 690 575T678 538V235Q678 166 663 121T616 46Q580 13 523 -4T390 -21Q322 -21 268 -6T176 39Q110 92 110 209V538Q110 553 109 559T102 571Q95 577 83 581T56 585H13V667H381V585H329Q295 585 281 568Q277 563 276 558T275 538V235ZM289 860Q315 860 333 842T351 797Q351 770 333 752T288 733Q261 733 243 751T224 797Q224 823 243 841T289 860ZM532 860Q558 860 576 842T594 797Q594 770 576 752T531 733Q504 733 486 751T467 797Q467 823 486 841T532 860Z"  />
<glyph unicode="&#xDD;" horiz-adv-x="737" d="M113 525Q100 543 91 554T72 571T53 579T30 581H0V667H387V581H336Q299 581 299 564Q299 559 300 556T313 538L420 381L518 544Q527 559 527 567Q527 575 521 578T498 581H449V667H737V581H718Q702 581 691 579T669 566T643 535T607 481L468 262V129Q468 115 469 109T476 97Q490 83 522 83H584V0H188V83H249Q284 83 297 99Q301 104 302 109T303 129V262L113 525ZM407 862H584Q603 862 603 848Q603 836 595 830T558 811L389 730H302L407 862Z"  />
<glyph unicode="&#xDE;" horiz-adv-x="718" d="M477 529Q591 529 649 482T708 343Q708 159 457 159H308V129Q308 115 309 109T316 97Q330 83 362 83H414V0H37V82H89Q106 82 118 86T137 99Q141 104 142 109T143 129V538Q143 553 142 559T135 571Q128 577 116 581T89 585H37V667H414V585H362Q328 585 314 568Q310 563 309 558T308 538V529H477ZM391 245Q466 245 500 269T535 345Q535 372 523 394T490 427Q472 436 448 439T381 443H308V245H391Z"  />
<glyph unicode="&#xDF;" horiz-adv-x="628" d="M366 170V121Q366 91 373 78T395 64Q413 64 422 92Q424 99 426 111T429 138T432 167T433 195Q433 253 421 293T389 348Q375 356 358 359T300 361V440L316 441Q348 443 362 446T387 461Q410 484 410 524Q410 560 389 582T333 604Q281 604 263 561Q260 553 258 548T255 534T254 512T254 477V0H33V81H70Q90 81 98 91T106 126V503Q106 543 123 576T171 634T245 671T340 684Q388 684 428 673T497 642T543 595T559 534Q559 444 447 407Q522 384 558 335T595 205Q595 157 582 116T546 46T490 1T419 -16Q358 -16 326 15T293 106V170H366Z"  />
<glyph unicode="&#xE0;" horiz-adv-x="589" d="M580 176V119Q580 48 549 16T450 -17Q358 -17 327 56Q266 -17 169 -17Q103 -17 65 18T27 115Q27 161 48 192T108 238Q118 241 125 243T143 249T175 256T231 269Q285 281 304 297T324 344Q324 381 295 400T211 420Q191 420 180 418T153 408Q177 398 188 385T199 349Q199 320 179 300T126 280Q91 280 68 304T45 365Q45 388 54 410T81 446Q110 472 147 482T246 492Q366 492 418 455T470 330V108Q470 89 474 82T490 74Q503 74 508 84T513 119V176H580ZM322 223Q299 215 286 210T265 203T252 199T240 195Q201 183 189 171T176 131Q176 106 191 91T232 76Q250 76 266 82T294 98T314 121T322 149V223ZM266 540L149 646Q138 657 130 667T122 683Q122 700 146 700H266L332 540H266Z"  />
<glyph unicode="&#xE1;" horiz-adv-x="589" d="M580 176V119Q580 48 549 16T450 -17Q358 -17 327 56Q266 -17 169 -17Q103 -17 65 18T27 115Q27 161 48 192T108 238Q118 241 125 243T143 249T175 256T231 269Q285 281 304 297T324 344Q324 381 295 400T211 420Q191 420 180 418T153 408Q177 398 188 385T199 349Q199 320 179 300T126 280Q91 280 68 304T45 365Q45 388 54 410T81 446Q110 472 147 482T246 492Q366 492 418 455T470 330V108Q470 89 474 82T490 74Q503 74 508 84T513 119V176H580ZM322 223Q299 215 286 210T265 203T252 199T240 195Q201 183 189 171T176 131Q176 106 191 91T232 76Q250 76 266 82T294 98T314 121T322 149V223ZM274 700H394Q418 700 418 683Q418 678 411 668T391 646L274 540H208L274 700Z"  />
<glyph unicode="&#xE2;" horiz-adv-x="589" d="M580 176V119Q580 48 549 16T450 -17Q358 -17 327 56Q266 -17 169 -17Q103 -17 65 18T27 115Q27 161 48 192T108 238Q118 241 125 243T143 249T175 256T231 269Q285 281 304 297T324 344Q324 381 295 400T211 420Q191 420 180 418T153 408Q177 398 188 385T199 349Q199 320 179 300T126 280Q91 280 68 304T45 365Q45 388 54 410T81 446Q110 472 147 482T246 492Q366 492 418 455T470 330V108Q470 89 474 82T490 74Q503 74 508 84T513 119V176H580ZM322 223Q299 215 286 210T265 203T252 199T240 195Q201 183 189 171T176 131Q176 106 191 91T232 76Q250 76 266 82T294 98T314 121T322 149V223ZM334 699L435 540H318L254 630L191 540H105L208 699H334Z"  />
<glyph unicode="&#xE3;" horiz-adv-x="589" d="M580 176V119Q580 48 549 16T450 -17Q358 -17 327 56Q266 -17 169 -17Q103 -17 65 18T27 115Q27 161 48 192T108 238Q118 241 125 243T143 249T175 256T231 269Q285 281 304 297T324 344Q324 381 295 400T211 420Q191 420 180 418T153 408Q177 398 188 385T199 349Q199 320 179 300T126 280Q91 280 68 304T45 365Q45 388 54 410T81 446Q110 472 147 482T246 492Q366 492 418 455T470 330V108Q470 89 474 82T490 74Q503 74 508 84T513 119V176H580ZM322 223Q299 215 286 210T265 203T252 199T240 195Q201 183 189 171T176 131Q176 106 191 91T232 76Q250 76 266 82T294 98T314 121T322 149V223ZM71 550Q89 681 191 681Q213 681 233 675T288 653Q311 642 325 638T351 634Q370 634 380 644T395 678H469Q454 547 345 547Q322 547 302 552T250 573Q224 584 211 588T186 593Q152 593 145 550H71Z"  />
<glyph unicode="&#xE4;" horiz-adv-x="589" d="M580 176V119Q580 48 549 16T450 -17Q358 -17 327 56Q266 -17 169 -17Q103 -17 65 18T27 115Q27 161 48 192T108 238Q118 241 125 243T143 249T175 256T231 269Q285 281 304 297T324 344Q324 381 295 400T211 420Q191 420 180 418T153 408Q177 398 188 385T199 349Q199 320 179 300T126 280Q91 280 68 304T45 365Q45 388 54 410T81 446Q110 472 147 482T246 492Q366 492 418 455T470 330V108Q470 89 474 82T490 74Q503 74 508 84T513 119V176H580ZM322 223Q299 215 286 210T265 203T252 199T240 195Q201 183 189 171T176 131Q176 106 191 91T232 76Q250 76 266 82T294 98T314 121T322 149V223ZM163 677Q189 677 207 659T225 614Q225 587 207 569T162 550Q135 550 117 568T98 614Q98 640 117 658T163 677ZM380 677Q406 677 424 659T442 614Q442 587 424 569T379 550Q352 550 334 568T315 614Q315 640 334 658T380 677Z"  />
<glyph unicode="&#xE5;" horiz-adv-x="589" d="M580 176V119Q580 48 549 16T450 -17Q358 -17 327 56Q266 -17 169 -17Q103 -17 65 18T27 115Q27 161 48 192T108 238Q118 241 125 243T143 249T175 256T231 269Q285 281 304 297T324 344Q324 381 295 400T211 420Q191 420 180 418T153 408Q177 398 188 385T199 349Q199 320 179 300T126 280Q91 280 68 304T45 365Q45 388 54 410T81 446Q110 472 147 482T246 492Q366 492 418 455T470 330V108Q470 89 474 82T490 74Q503 74 508 84T513 119V176H580ZM322 223Q299 215 286 210T265 203T252 199T240 195Q201 183 189 171T176 131Q176 106 191 91T232 76Q250 76 266 82T294 98T314 121T322 149V223ZM271 737Q292 737 310 729T341 707T363 675T371 636Q371 615 363 596T342 564T310 542T270 534Q249 534 230 542T198 564T176 596T168 636Q168 657 176 675T198 707T231 729T271 737ZM270 684Q250 684 236 670T221 636Q221 616 235 602T270 587Q290 587 304 601T318 636Q318 656 304 670T270 684Z"  />
<glyph unicode="&#xE6;" horiz-adv-x="840" d="M470 219Q470 192 473 175T484 138Q498 106 527 87T592 67Q634 67 660 90T707 165H807Q759 -17 575 -17Q503 -17 454 6T366 83Q334 35 285 9T175 -17Q106 -17 67 17T27 113Q27 202 98 235Q109 240 117 243T137 249T171 257T232 271Q274 280 297 290Q320 300 328 312T337 345Q337 381 309 401T231 422Q213 422 200 420T166 413Q189 393 197 380T205 348Q205 322 184 304T133 286Q98 286 76 309T53 367Q53 425 107 459T253 493Q307 493 347 483T425 449Q463 473 497 483T575 493Q695 493 758 415Q785 382 796 342T808 243Q808 241 808 234T807 219H470ZM660 313Q660 335 653 354T633 387T603 409T567 417Q524 417 499 387T470 300H659L660 313ZM334 224Q317 216 310 213T286 204Q254 195 214 183Q196 178 185 164T174 131Q174 105 189 90T231 74Q253 74 272 81T304 102T326 134T334 173V224Z"  />
<glyph unicode="&#xE7;" horiz-adv-x="545" d="M266 -58Q275 -56 281 -56T295 -55Q333 -55 357 -74T381 -122Q381 -164 347 -190T258 -216Q230 -216 206 -210T150 -190L170 -145Q212 -161 243 -161Q263 -161 275 -152T287 -129Q287 -114 276 -105T246 -96Q239 -96 231 -97T209 -101L190 -82L236 -14Q137 3 85 66T33 232Q33 384 141 452Q209 492 291 492Q336 492 373 481T438 451T480 404T495 344Q495 305 473 282T415 258Q381 258 360 278T338 329Q338 348 345 361T373 394Q354 404 341 408T312 412Q256 412 224 364T191 234Q191 159 221 114T303 69Q348 69 378 101T414 186H512Q509 142 492 106T446 44T378 2T293 -16L266 -58Z"  />
<glyph unicode="&#xE8;" horiz-adv-x="563" d="M185 220Q191 142 221 106T309 69Q352 69 382 93T427 165H523Q512 80 451 32T291 -17Q231 -17 184 0T103 51T51 131T33 237Q33 295 50 342T100 423T179 474T282 492Q339 492 385 475T463 426T512 349T530 248Q530 244 530 236T529 220H185ZM377 303Q377 351 351 381T283 412Q192 412 186 297H377V303ZM277 540L160 646Q149 657 141 667T133 683Q133 700 157 700H277L343 540H277Z"  />
<glyph unicode="&#xE9;" horiz-adv-x="563" d="M185 220Q191 142 221 106T309 69Q352 69 382 93T427 165H523Q512 80 451 32T291 -17Q231 -17 184 0T103 51T51 131T33 237Q33 295 50 342T100 423T179 474T282 492Q339 492 385 475T463 426T512 349T530 248Q530 244 530 236T529 220H185ZM377 303Q377 351 351 381T283 412Q192 412 186 297H377V303ZM285 700H405Q429 700 429 683Q429 678 422 668T402 646L285 540H219L285 700Z"  />
<glyph unicode="&#xEA;" horiz-adv-x="563" d="M185 220Q191 142 221 106T309 69Q352 69 382 93T427 165H523Q512 80 451 32T291 -17Q231 -17 184 0T103 51T51 131T33 237Q33 295 50 342T100 423T179 474T282 492Q339 492 385 475T463 426T512 349T530 248Q530 244 530 236T529 220H185ZM377 303Q377 351 351 381T283 412Q192 412 186 297H377V303ZM345 699L446 540H329L265 630L202 540H116L219 699H345Z"  />
<glyph unicode="&#xEB;" horiz-adv-x="563" d="M185 220Q191 142 221 106T309 69Q352 69 382 93T427 165H523Q512 80 451 32T291 -17Q231 -17 184 0T103 51T51 131T33 237Q33 295 50 342T100 423T179 474T282 492Q339 492 385 475T463 426T512 349T530 248Q530 244 530 236T529 220H185ZM377 303Q377 351 351 381T283 412Q192 412 186 297H377V303ZM174 677Q200 677 218 659T236 614Q236 587 218 569T173 550Q146 550 128 568T109 614Q109 640 128 658T174 677ZM391 677Q417 677 435 659T453 614Q453 587 435 569T390 550Q363 550 345 568T326 614Q326 640 345 658T391 677Z"  />
<glyph unicode="&#xEC;" horiz-adv-x="358" d="M257 126Q257 101 264 91T292 81H335V0H30V81H73Q93 81 101 91T109 126V351Q109 376 101 386T73 396H30V477H257V126ZM177 540L60 646Q49 657 41 667T33 683Q33 700 57 700H177L243 540H177Z"  />
<glyph unicode="&#xED;" horiz-adv-x="358" d="M257 126Q257 101 264 91T292 81H335V0H30V81H73Q93 81 101 91T109 126V351Q109 376 101 386T73 396H30V477H257V126ZM185 700H305Q329 700 329 683Q329 678 322 668T302 646L185 540H119L185 700Z"  />
<glyph unicode="&#xEE;" horiz-adv-x="358" d="M234 699L325 540H208L154 630L101 540H15L108 699H234ZM257 126Q257 101 264 91T292 81H335V0H30V81H73Q93 81 101 91T109 126V351Q109 376 101 386T73 396H30V477H257V126Z"  />
<glyph unicode="&#xEF;" horiz-adv-x="358" d="M92 677Q118 677 136 659T154 614Q154 587 136 569T91 550Q64 550 46 568T27 614Q27 640 46 658T92 677ZM255 677Q281 677 299 659T317 614Q317 587 299 569T254 550Q227 550 209 568T190 614Q190 640 209 658T255 677ZM257 126Q257 101 264 91T292 81H335V0H30V81H73Q93 81 101 91T109 126V351Q109 376 101 386T73 396H30V477H257V126Z"  />
<glyph unicode="&#xF0;" horiz-adv-x="595" d="M262 545L178 509L148 568L226 601L185 667H270L302 633L388 669L417 610L352 581L451 473Q511 408 536 354T562 238Q562 179 544 132T491 52T407 1T298 -17Q235 -17 183 2T95 58Q33 120 33 228Q33 353 102 422T297 492L262 545ZM298 412Q247 412 219 367T191 242Q191 154 218 109T297 63Q348 63 376 108T404 238Q404 320 376 366T298 412Z"  />
<glyph unicode="&#xF1;" horiz-adv-x="673" d="M247 405Q269 430 288 446T326 473T367 487T414 492Q488 492 529 455T571 350V126Q571 101 579 91T608 81H650V0H360V81H387Q407 81 415 91T423 126V301Q423 353 407 375T351 397Q326 397 305 387T273 359Q257 334 257 277V126Q257 101 265 91T293 81H318V0H33V81H73Q93 81 101 91T109 126V351Q109 376 101 386T73 396H33V477H250L247 405ZM145 550Q163 681 265 681Q287 681 307 675T362 653Q385 642 399 638T425 634Q444 634 454 644T469 678H543Q528 547 419 547Q396 547 376 552T324 573Q298 584 285 588T260 593Q226 593 219 550H145Z"  />
<glyph unicode="&#xF2;" horiz-adv-x="595" d="M298 492Q358 492 407 474T490 423T543 343T562 237Q562 179 544 132T491 52T407 1T298 -17Q236 -17 187 1T104 52T52 133T33 241Q33 296 53 346T110 429Q181 492 298 492ZM298 412Q247 412 219 367T191 241Q191 155 218 109T298 63Q348 63 376 108T404 236Q404 321 377 366T298 412ZM293 540L176 646Q165 657 157 667T149 683Q149 700 173 700H293L359 540H293Z"  />
<glyph unicode="&#xF3;" horiz-adv-x="595" d="M298 492Q358 492 407 474T490 423T543 343T562 237Q562 179 544 132T491 52T407 1T298 -17Q236 -17 187 1T104 52T52 133T33 241Q33 296 53 346T110 429Q181 492 298 492ZM298 412Q247 412 219 367T191 241Q191 155 218 109T298 63Q348 63 376 108T404 236Q404 321 377 366T298 412ZM301 700H421Q445 700 445 683Q445 678 438 668T418 646L301 540H235L301 700Z"  />
<glyph unicode="&#xF4;" horiz-adv-x="595" d="M298 492Q358 492 407 474T490 423T543 343T562 237Q562 179 544 132T491 52T407 1T298 -17Q236 -17 187 1T104 52T52 133T33 241Q33 296 53 346T110 429Q181 492 298 492ZM298 412Q247 412 219 367T191 241Q191 155 218 109T298 63Q348 63 376 108T404 236Q404 321 377 366T298 412ZM361 699L462 540H345L281 630L218 540H132L235 699H361Z"  />
<glyph unicode="&#xF5;" horiz-adv-x="595" d="M298 492Q358 492 407 474T490 423T543 343T562 237Q562 179 544 132T491 52T407 1T298 -17Q236 -17 187 1T104 52T52 133T33 241Q33 296 53 346T110 429Q181 492 298 492ZM298 412Q247 412 219 367T191 241Q191 155 218 109T298 63Q348 63 376 108T404 236Q404 321 377 366T298 412ZM98 550Q116 681 218 681Q240 681 260 675T315 653Q338 642 352 638T378 634Q397 634 407 644T422 678H496Q481 547 372 547Q349 547 329 552T277 573Q251 584 238 588T213 593Q179 593 172 550H98Z"  />
<glyph unicode="&#xF6;" horiz-adv-x="595" d="M298 492Q358 492 407 474T490 423T543 343T562 237Q562 179 544 132T491 52T407 1T298 -17Q236 -17 187 1T104 52T52 133T33 241Q33 296 53 346T110 429Q181 492 298 492ZM298 412Q247 412 219 367T191 241Q191 155 218 109T298 63Q348 63 376 108T404 236Q404 321 377 366T298 412ZM190 677Q216 677 234 659T252 614Q252 587 234 569T189 550Q162 550 144 568T125 614Q125 640 144 658T190 677ZM407 677Q433 677 451 659T469 614Q469 587 451 569T406 550Q379 550 361 568T342 614Q342 640 361 658T407 677Z"  />
<glyph unicode="&#xF7;" horiz-adv-x="720" d="M359 374Q329 374 310 393T291 444Q291 476 310 495T360 514Q391 514 409 495T429 444Q429 413 410 394T359 374ZM78 309H642V225H78V309ZM359 20Q329 20 310 39T291 90Q291 122 310 141T360 160Q391 160 409 141T429 90Q429 59 410 40T359 20Z"  />
<glyph unicode="&#xF8;" horiz-adv-x="595" d="M503 409Q562 339 562 237Q562 179 544 132T491 52T407 1T298 -17Q250 -17 211 -7T138 25L81 -35L36 8L91 66Q33 138 33 238Q33 296 51 343T104 423T187 474T296 492Q344 492 383 482T457 450L515 511L559 469L503 409ZM220 107Q231 87 252 75T297 63Q348 63 376 108T404 236Q404 255 403 269T398 303L220 107ZM374 367Q364 387 343 399T297 412Q246 412 219 367T191 239Q191 219 192 206T197 172L374 367Z"  />
<glyph unicode="&#xF9;" horiz-adv-x="670" d="M563 126Q563 101 571 91T599 81H644V0H415V67Q396 43 378 27T341 2T301 -12T254 -17Q184 -17 144 23Q123 43 114 67T105 131V351Q105 376 97 386T69 396H30V477H253V183Q253 164 254 151T257 129T263 113T274 99Q291 79 322 79Q370 79 396 113Q407 129 411 146T415 199V351Q415 376 407 386T379 396H337V477H563V126ZM316 540L199 646Q188 657 180 667T172 683Q172 700 196 700H316L382 540H316Z"  />
<glyph unicode="&#xFA;" horiz-adv-x="670" d="M563 126Q563 101 571 91T599 81H644V0H415V67Q396 43 378 27T341 2T301 -12T254 -17Q184 -17 144 23Q123 43 114 67T105 131V351Q105 376 97 386T69 396H30V477H253V183Q253 164 254 151T257 129T263 113T274 99Q291 79 322 79Q370 79 396 113Q407 129 411 146T415 199V351Q415 376 407 386T379 396H337V477H563V126ZM324 700H444Q468 700 468 683Q468 678 461 668T441 646L324 540H258L324 700Z"  />
<glyph unicode="&#xFB;" horiz-adv-x="670" d="M563 126Q563 101 571 91T599 81H644V0H415V67Q396 43 378 27T341 2T301 -12T254 -17Q184 -17 144 23Q123 43 114 67T105 131V351Q105 376 97 386T69 396H30V477H253V183Q253 164 254 151T257 129T263 113T274 99Q291 79 322 79Q370 79 396 113Q407 129 411 146T415 199V351Q415 376 407 386T379 396H337V477H563V126ZM384 699L485 540H368L304 630L241 540H155L258 699H384Z"  />
<glyph unicode="&#xFC;" horiz-adv-x="670" d="M563 126Q563 101 571 91T599 81H644V0H415V67Q396 43 378 27T341 2T301 -12T254 -17Q184 -17 144 23Q123 43 114 67T105 131V351Q105 376 97 386T69 396H30V477H253V183Q253 164 254 151T257 129T263 113T274 99Q291 79 322 79Q370 79 396 113Q407 129 411 146T415 199V351Q415 376 407 386T379 396H337V477H563V126ZM213 677Q239 677 257 659T275 614Q275 587 257 569T212 550Q185 550 167 568T148 614Q148 640 167 658T213 677ZM430 677Q456 677 474 659T492 614Q492 587 474 569T429 550Q402 550 384 568T365 614Q365 640 384 658T430 677Z"  />
<glyph unicode="&#xFD;" horiz-adv-x="584" d="M422 361Q427 374 427 382Q427 390 422 393T403 396H365V477H584V396H564Q554 396 548 395T536 389T526 376T515 352L326 -74Q309 -113 291 -139T252 -183T206 -207T150 -215Q87 -215 49 -183T11 -100Q11 -59 35 -32T95 -5Q125 -5 145 -24T166 -74Q166 -99 152 -113T106 -135Q114 -146 122 -149T145 -153Q161 -153 174 -147T200 -127T226 -88T254 -29L84 361Q74 383 65 389T30 396H7V477H311V396H270Q254 396 248 393T242 382Q242 374 246 366L333 153L422 361ZM318 700H438Q462 700 462 683Q462 678 455 668T435 646L318 540H252L318 700Z"  />
<glyph unicode="&#xFE;" horiz-adv-x="635" d="M255 419Q286 457 321 474T404 492Q499 492 550 429T602 248Q602 121 548 52T394 -17Q350 -17 317 -3T255 42V-75Q255 -100 263 -110T291 -120H339V-201H30V-120H71Q91 -120 99 -110T107 -75V541Q107 566 99 576T71 586H30V667H255V419ZM350 398Q304 398 279 355T253 234Q253 74 348 74Q395 74 419 116T444 241Q444 398 350 398Z"  />
<glyph unicode="&#xFF;" horiz-adv-x="584" d="M422 361Q427 374 427 382Q427 390 422 393T403 396H365V477H584V396H564Q554 396 548 395T536 389T526 376T515 352L326 -74Q309 -113 291 -139T252 -183T206 -207T150 -215Q87 -215 49 -183T11 -100Q11 -59 35 -32T95 -5Q125 -5 145 -24T166 -74Q166 -99 152 -113T106 -135Q114 -146 122 -149T145 -153Q161 -153 174 -147T200 -127T226 -88T254 -29L84 361Q74 383 65 389T30 396H7V477H311V396H270Q254 396 248 393T242 382Q242 374 246 366L333 153L422 361ZM207 677Q233 677 251 659T269 614Q269 587 251 569T206 550Q179 550 161 568T142 614Q142 640 161 658T207 677ZM424 677Q450 677 468 659T486 614Q486 587 468 569T423 550Q396 550 378 568T359 614Q359 640 378 658T424 677Z"  />
<glyph unicode="&#x131;" horiz-adv-x="358" d="M257 126Q257 101 264 91T292 81H335V0H30V81H73Q93 81 101 91T109 126V351Q109 376 101 386T73 396H30V477H257V126Z"  />
<glyph unicode="&#x152;" horiz-adv-x="1115" d="M1059 406H964Q964 431 963 450T959 483T954 508T945 529Q931 558 907 569T834 581H678V389H729Q761 389 773 404T786 459V503H878V183H786V228Q786 268 774 284T730 300H678V86H826Q900 86 931 117Q947 133 956 174T965 269Q965 271 965 275T964 286H1059L1053 0H556Q551 0 543 0T524 -2Q475 -7 443 -9T389 -12Q311 -12 247 12T137 80T66 186T40 323Q40 403 66 468T139 581T254 653T403 679Q415 679 422 679T441 678T471 674T523 667H556H1059V406ZM513 539Q490 567 465 579T407 592Q365 592 329 572T268 517T228 433T213 326Q213 253 233 198T291 110Q343 66 405 66Q440 66 468 78T513 113V539Z"  />
<glyph unicode="&#x153;" horiz-adv-x="908" d="M531 218Q533 188 537 171T550 134Q565 105 593 88T655 70Q697 70 724 93T768 165H868Q850 77 792 30T642 -17Q527 -17 466 53Q438 18 393 1T287 -17Q230 -17 181 2T96 55Q33 120 33 238Q33 296 51 343T102 423T183 475T288 493Q348 493 396 476T472 430Q506 464 544 478T638 493Q750 493 812 426T874 237V218H531ZM723 299Q721 353 696 383T629 413Q587 413 561 382T535 299H723ZM295 413Q246 413 219 367T191 239Q191 180 201 146T235 88Q260 63 295 63Q331 63 358 90Q380 113 389 149T399 244Q399 291 392 321T371 372Q341 413 295 413Z"  />
<glyph unicode="&#x160;" horiz-adv-x="655" d="M601 427H508Q504 459 497 480T477 521Q451 558 407 579T311 601Q254 601 219 576T183 509Q183 493 190 481T212 459T254 441T320 425Q368 415 399 408T452 396T489 385T521 373Q628 326 628 203Q628 98 558 39T365 -21Q294 -21 241 -3T140 54L119 0H40V247H134Q144 206 152 185T173 147Q198 113 247 93T351 72Q408 72 442 96T477 161Q477 206 429 222Q417 226 408 229T381 236T331 248T239 270Q206 277 182 285T139 301T107 320T82 343Q42 391 42 462Q42 514 61 555T114 626T198 672T308 688Q372 688 419 673T508 622L522 667H601V427ZM241 730L120 862H257L334 785L406 862H521L403 730H241Z"  />
<glyph unicode="&#x161;" horiz-adv-x="514" d="M462 309H382Q344 413 235 413Q203 413 183 401T163 369Q163 348 191 335Q198 331 205 329T227 322T265 313T333 298Q408 281 444 244T480 144Q480 66 429 25T282 -17Q229 -17 192 -4T118 42L109 0H33V181H109Q117 155 124 141T141 115Q161 91 195 77T268 63Q304 63 324 76T345 113Q345 124 339 132T315 148T264 165T177 188Q129 199 105 211T63 242Q33 278 33 333Q33 408 83 450T224 492Q275 492 312 480T382 441L391 477H462V309ZM193 540L92 699H209L272 609L336 699H422L319 540H193Z"  />
<glyph unicode="&#x178;" horiz-adv-x="737" d="M113 525Q100 543 91 554T72 571T53 579T30 581H0V667H387V581H336Q299 581 299 564Q299 559 300 556T313 538L420 381L518 544Q527 559 527 567Q527 575 521 578T498 581H449V667H737V581H718Q702 581 691 579T669 566T643 535T607 481L468 262V129Q468 115 469 109T476 97Q490 83 522 83H584V0H188V83H249Q284 83 297 99Q301 104 302 109T303 129V262L113 525ZM273 860Q299 860 317 842T335 797Q335 770 317 752T272 733Q245 733 227 751T208 797Q208 823 227 841T273 860ZM516 860Q542 860 560 842T578 797Q578 770 560 752T515 733Q488 733 470 751T451 797Q451 823 470 841T516 860Z"  />
<glyph unicode="&#x17D;" horiz-adv-x="653" d="M622 587L228 81H370Q405 81 429 84T471 97T500 121T520 159Q526 177 529 204T537 285H629L622 0H23V81L414 581H271Q191 581 161 548Q139 523 136 482L132 418L130 399H38L44 667H622V587ZM247 730L126 862H263L340 785L412 862H527L409 730H247Z"  />
<glyph unicode="&#x17E;" horiz-adv-x="539" d="M513 413L221 81H312Q362 81 385 94T418 140Q422 153 423 170T427 224H513V0H28V75L312 396H229Q191 396 174 392T148 376Q129 350 125 268H42L47 477H513V413ZM205 540L104 699H221L284 609L348 699H434L331 540H205Z"  />
<glyph unicode="&#x192;" horiz-adv-x="571" d="M243 458L258 545Q267 594 277 620T308 668Q336 698 377 715T463 732Q519 732 551 703T584 623Q584 588 566 570T514 551Q482 551 464 566T446 609Q446 642 478 661Q472 670 463 670Q424 670 412 597L387 458H502L488 379H373L318 64Q313 35 308 15T295 -21T277 -48T254 -71Q226 -94 188 -107T113 -120Q56 -120 22 -91T-13 -13Q-13 22 7 43T59 64Q88 64 105 48T123 5Q123 -30 93 -50Q101 -55 106 -56T118 -58Q128 -58 135 -55T148 -41T158 -15T167 28L229 379H152L166 458H243Z"  />
<glyph unicode="&#x2C6;" horiz-adv-x="500" d="M314 699L415 540H298L234 630L171 540H85L188 699H314Z"  />
<glyph unicode="&#x2C7;" horiz-adv-x="500" d="M186 540L85 699H202L265 609L329 699H415L312 540H186Z"  />
<glyph unicode="&#x2DA;" horiz-adv-x="500" d="M251 737Q272 737 290 729T321 707T343 675T351 636Q351 615 343 596T322 564T290 542T250 534Q229 534 210 542T178 564T156 596T148 636Q148 657 156 675T178 707T211 729T251 737ZM250 684Q230 684 216 670T201 636Q201 616 215 602T250 587Q270 587 284 601T298 636Q298 656 284 670T250 684Z"  />
<glyph unicode="&#x2DC;" horiz-adv-x="500" d="M51 550Q69 681 171 681Q193 681 213 675T268 653Q291 642 305 638T331 634Q350 634 360 644T375 678H449Q434 547 325 547Q302 547 282 552T230 573Q204 584 191 588T166 593Q132 593 125 550H51Z"  />
<glyph unicode="&#x2013;" horiz-adv-x="571" d="M525 306V181H44V306H525Z"  />
<glyph unicode="&#x2014;" horiz-adv-x="1000" d="M1000 306V181H0V306H1000Z"  />
<glyph unicode="&#x2018;" horiz-adv-x="267" d="M219 630Q173 613 148 588T124 533V529Q138 535 147 537T167 539Q197 539 217 518T237 465Q237 429 213 405T151 381Q106 381 78 414T50 504Q50 550 70 589T127 654Q147 668 167 675T219 690V630Z"  />
<glyph unicode="&#x2019;" horiz-adv-x="267" d="M48 438Q94 455 119 481T143 536V540Q129 534 120 532T100 530Q70 530 50 551T30 604Q30 640 54 664T116 688Q161 688 189 655T217 565Q217 519 197 480T140 415Q120 401 100 394T48 379V438Z"  />
<glyph unicode="&#x201A;" horiz-adv-x="267" d="M48 -97Q94 -80 119 -55T143 0V4Q129 -1 120 -3T100 -5Q70 -5 50 16T30 69Q30 104 54 128T115 152Q161 152 189 119T217 29Q217 -17 197 -56T140 -121Q120 -135 100 -142T48 -157V-97Z"  />
<glyph unicode="&#x201C;" horiz-adv-x="510" d="M462 630Q416 613 391 588T367 533V529Q381 535 390 537T410 539Q440 539 460 518T480 465Q480 429 456 405T394 381Q349 381 321 414T293 504Q293 550 313 589T370 654Q390 668 410 675T462 690V630ZM219 630Q173 613 148 588T124 533V529Q138 535 147 537T167 539Q197 539 217 518T237 465Q237 429 213 405T151 381Q106 381 78 414T50 504Q50 550 70 589T127 654Q147 668 167 675T219 690V630Z"  />
<glyph unicode="&#x201D;" horiz-adv-x="510" d="M48 438Q94 455 119 481T143 536V540Q129 534 120 532T100 530Q70 530 50 551T30 604Q30 640 54 664T116 688Q161 688 189 655T217 565Q217 519 197 480T140 415Q120 401 100 394T48 379V438ZM291 438Q337 455 362 481T386 536V540Q372 534 363 532T343 530Q313 530 293 551T273 604Q273 640 297 664T359 688Q404 688 432 655T460 565Q460 519 440 480T383 415Q363 401 343 394T291 379V438Z"  />
<glyph unicode="&#x201E;" horiz-adv-x="510" d="M48 -97Q94 -80 119 -55T143 0V4Q129 -1 120 -3T100 -5Q70 -5 50 16T30 69Q30 104 54 128T115 152Q161 152 189 119T217 29Q217 -17 197 -56T140 -121Q120 -135 100 -142T48 -157V-97ZM291 -97Q337 -80 362 -55T386 0V4Q372 -1 363 -3T343 -5Q313 -5 293 16T273 69Q273 104 297 128T358 152Q404 152 432 119T460 29Q460 -17 440 -56T383 -121Q363 -135 343 -142T291 -157V-97Z"  />
<glyph unicode="&#x2020;" horiz-adv-x="571" d="M260 407Q236 400 223 395T189 375Q175 367 167 364T148 361Q120 361 102 382T84 437Q84 470 101 491T144 513Q151 513 155 513T166 510T180 503T203 489Q218 481 229 477T260 467Q260 480 259 489T256 508T250 528T239 553Q227 580 222 596T217 628Q217 688 285 688Q353 688 353 628Q353 614 348 597T331 553Q325 538 321 528T315 509T312 490T311 467Q331 472 342 476T368 489Q382 498 390 502T405 509T415 512T427 513Q453 513 470 492T487 438Q487 404 469 383T423 361Q412 361 404 364T382 375Q362 388 349 394T311 407Q313 286 323 181T354 -28Q357 -47 359 -64T361 -95Q361 -132 341 -154T286 -177Q252 -177 232 -155T211 -95Q211 -82 213 -65T218 -28Q228 26 234 70T245 161T253 261T260 387V407Z"  />
<glyph unicode="&#x2021;" horiz-adv-x="571" d="M199 255Q231 290 245 327T260 407Q246 402 239 400T222 394Q209 387 197 381T172 367Q160 361 145 361Q119 361 101 382T83 436Q83 469 100 490T143 512Q157 512 169 508T204 489Q213 484 219 481T231 475T243 471T260 467Q260 480 259 489T256 508T250 528T239 554Q226 583 222 599T217 629Q217 688 287 688Q356 688 356 629Q356 614 352 599T334 554Q328 539 324 529T318 509T314 490T313 467Q323 469 329 471T341 475T353 480T369 489Q392 503 404 507T430 512Q456 512 473 491T490 436Q490 404 472 383T428 361Q422 361 418 361T408 364T390 373T360 390Q351 395 341 398T313 407Q313 324 370 255Q313 186 313 103Q327 107 334 109T351 116Q373 126 402 143Q412 149 428 149Q454 149 472 128T490 74Q490 41 473 20T430 -2Q416 -2 404 2T369 21Q360 26 354 29T342 35T330 39T313 43Q313 30 314 20T317 1T324 -19T334 -45Q347 -74 351 -89T356 -120Q356 -179 287 -179Q217 -179 217 -120Q217 -105 221 -90T239 -45Q246 -30 250 -20T256 0T259 20T260 43Q250 41 244 39T232 35T220 30T204 21Q182 7 170 3T143 -2Q117 -2 100 19T83 74Q83 106 101 127T145 149Q151 149 155 149T165 146T182 137T213 120Q222 115 232 112T260 103Q260 145 246 182T199 255Z"  />
<glyph unicode="&#x2022;" horiz-adv-x="667" d="M337 478Q365 478 389 467T432 437T462 393T473 340Q473 311 462 286T433 242T389 212T335 201Q306 201 281 212T237 241T207 285T196 339Q196 368 207 393T237 437T281 467T337 478Z"  />
<glyph unicode="&#x2026;" horiz-adv-x="813" d="M137 163Q172 163 196 138T221 78Q221 43 196 18T136 -7Q101 -7 76 18T51 79Q51 114 76 138T137 163ZM408 163Q443 163 467 138T492 78Q492 43 467 18T407 -7Q372 -7 347 18T322 79Q322 114 347 138T408 163ZM679 163Q714 163 738 138T763 78Q763 43 738 18T678 -7Q643 -7 618 18T593 79Q593 114 618 138T679 163Z"  />
<glyph unicode="&#x2030;" horiz-adv-x="1072" d="M155 672Q187 672 213 659T254 623Q276 585 276 490Q276 447 271 421T254 377Q240 354 213 341T154 328Q116 328 89 344T48 391Q33 424 33 503Q33 548 37 575T53 621Q68 645 94 658T155 672ZM153 627Q142 627 135 622T125 604T120 568T118 507Q118 469 119 444T125 405T137 384T155 378Q163 378 171 382T182 395Q185 401 187 407T189 423T190 448T191 487Q191 531 190 558T184 601T173 621T153 627ZM584 667L215 0H148L517 667H584ZM575 339Q607 339 633 326T674 290Q696 252 696 157Q696 114 691 88T674 44Q660 21 633 8T574 -5Q536 -5 509 11T468 58Q453 91 453 170Q453 215 457 242T473 288Q488 312 514 325T575 339ZM573 294Q562 294 555 289T545 271T540 235T538 175Q538 136 539 111T545 72T557 51T575 45Q583 45 591 49T602 62Q605 68 607 74T609 90T610 115T611 154Q611 198 610 225T604 268T593 288T573 294ZM917 339Q950 339 976 326T1016 290Q1038 252 1038 157Q1038 114 1033 88T1017 44Q1002 21 975 8T916 -5Q879 -5 852 11T811 58Q796 91 796 170Q796 215 800 242T816 288Q830 312 857 325T917 339ZM916 294Q905 294 898 289T888 271T883 235T881 175Q881 136 882 111T888 72T900 51T918 45Q937 45 944 62Q947 68 949 74T951 90T952 115T953 154Q953 198 952 225T946 268T935 288T916 294Z"  />
<glyph unicode="&#x2039;" horiz-adv-x="290" d="M237 413L173 293Q163 274 158 260T152 237Q152 231 152 228T155 219T161 206T174 184L237 74H154L59 192Q37 220 37 244Q37 266 58 293L154 413H237Z"  />
<glyph unicode="&#x203A;" horiz-adv-x="290" d="M232 293Q253 266 253 244Q253 220 231 192L136 74H53L116 184Q124 197 128 205T135 218T137 228T138 237Q138 245 133 260T117 293L53 413H136L232 293Z"  />
<glyph unicode="&#x20AC;" horiz-adv-x="571" d="M455 6L439 52Q416 23 388 7T306 -10Q200 -10 146 52T84 225H-2L24 301H82V359H-2L24 435H84Q90 545 148 605T311 666Q360 666 388 653T439 614L455 656H534V486H455Q452 504 445 521T424 552T391 574T345 583Q315 583 295 572T263 542T246 495T240 435H470L443 359H237V301H427L400 225H240Q241 150 266 112T347 73Q373 73 392 82T423 107T443 143T454 185H534V6H455Z"  />
<glyph unicode="&#x2122;" horiz-adv-x="1034" d="M258 363Q258 350 264 345T287 340H329V287H81V340H123Q140 340 146 345T152 363V612Q128 612 113 608T89 593T75 563T70 514H9V667H400V514H338Q339 523 339 526T339 532Q339 613 271 613Q269 613 266 613T258 612V363ZM723 443L822 667H1016V614H981Q964 614 958 610T952 591V363Q952 349 958 345T981 340H1016V287H783V340H817Q834 340 840 344T846 363V559L725 287H675L556 562V363Q556 349 562 345T585 340H617V287H424V340H458Q475 340 481 344T487 363V591Q487 605 481 609T458 614H423V667H625L723 443Z"  />
<glyph unicode="&#xE300;" horiz-adv-x="500" d="M255 730L85 811Q56 822 48 829T40 848Q40 862 59 862H236L341 730H255Z"  />
<glyph unicode="&#xE301;" horiz-adv-x="500" d="M264 862H441Q460 862 460 848Q460 836 452 830T415 811L246 730H159L264 862Z"  />
<glyph unicode="&#xE302;" horiz-adv-x="500" d="M331 862L451 730H315L237 807L165 730H50L169 862H331Z"  />
<glyph unicode="&#xE303;" horiz-adv-x="500" d="M171 730L50 862H187L264 785L336 862H451L333 730H171Z"  />
<glyph unicode="&#xE304;" horiz-adv-x="500" d="M38 737Q55 798 87 825T173 853Q196 853 218 850T273 837Q305 828 317 826T340 823Q354 823 362 829T375 853H463Q454 798 421 767T338 736Q330 736 323 736T305 738T281 743T246 751Q208 760 192 763T167 766Q135 766 125 737H38Z"  />
<glyph unicode="&#xE305;" horiz-adv-x="500" d="M130 860Q156 860 174 842T192 797Q192 770 174 752T129 733Q102 733 84 751T65 797Q65 823 84 841T130 860ZM373 860Q399 860 417 842T435 797Q435 770 417 752T372 733Q345 733 327 751T308 797Q308 823 327 841T373 860Z"  />
<glyph unicode="&#xE308;" horiz-adv-x="500" d="M252 903Q271 903 287 896T317 875T337 845T345 808Q345 788 338 771T318 741T288 721T250 713Q210 713 183 741T155 809Q155 828 162 845T183 875T214 895T252 903ZM251 850Q233 850 221 838T208 808Q208 791 220 779T250 766Q267 766 279 778T292 808Q292 825 280 837T251 850Z"  />

</font>
</defs>
</svg>
